<?xml version="1.0" encoding="utf-8"?>
<!-- Generator: Adobe Illustrator 24.1.1, SVG Export Plug-In . SVG Version: 6.00 Build 0)  -->
<svg version="1.1" id="Capa_1" xmlns="http://www.w3.org/2000/svg" xmlns:xlink="http://www.w3.org/1999/xlink" x="0px" y="0px"
	 viewBox="0 0 595.3 841.9" style="enable-background:new 0 0 595.3 841.9;" xml:space="preserve">
<style type="text/css">
	.st0{fill:#BCBDFF;}
	.st1{fill:#243353;}
	.st2{fill:#253454;}
	.st3{fill:#676685;}
	.st4{fill:#00FCBA;}
	.st5{fill:#286774;}
	.st6{fill:#3C7082;}
	.st7{fill:#359294;}
	.st8{fill:#02ECB1;}
	.st9{fill:#02EBB1;}
	.st10{fill:#03E9B0;}
	.st11{fill:#03EAB1;}
	.st12{fill:#FAD500;}
	.st13{fill:#037AFA;}
	.st14{fill:#C5FFE4;}
	.st15{fill:#2D3653;}
	.st16{fill:#FFFDD4;}
	.st17{fill:#BBBCFF;}
	.st18{fill:#7874FF;}
	.st19{fill:#FFA884;}
	.st20{fill:#04D8A7;}
	.st21{fill:#04D4A5;}
	.st22{fill:#02EDB2;}
	.st23{fill:#02EEB3;}
	.st24{fill:#01FBBA;}
	.st25{fill:#37F4C8;}
	.st26{fill:#24516C;}
	.st27{fill:#1A3D59;}
	.st28{fill:#2D8598;}
	.st29{fill:#115766;}
	.st30{fill:#05CAA0;}
	.st31{fill:#03D9A8;}
	.st32{fill:#02DEAB;}
	.st33{fill:#1A3856;}
	.st34{fill:#FCA983;}
	.st35{fill:#131416;}
	.st36{fill:#7673FF;}
	.st37{fill:#00FCBC;}
	.st38{fill:none;stroke:#131416;stroke-miterlimit:10;}
	.st39{fill:#0A0C0E;}
</style>
<g id="fundador_00000133501843591053159840000018385249910110821823_">
	<g>
		<path class="st0" d="M479.1,541.3c3.3-4.3,8-6.3,13.1-7.3c5.3-1.1,10.7-0.6,15.8,1c1.4,0.4,2.6,0.7,4,0.2c3.8-1.4,7.1,0,10.3,2
			c2.2,1.4,3.7,3.4,4.6,5.8c1,2.6,1.9,5.4,1.6,8.3c-0.2,2.2-0.5,4.3,0.1,6.5c0.1,0.2,0,0.5,0,0.7c-0.5,6,0.2,12.1-0.4,18.1
			c-0.4,3.4,0.1,6.8,0.6,10.2c0.3,2,0.7,4,0.9,6.1c0.1,1.7,0.8,3.1,1.5,4.5c3.5,6.9,7.1,13.8,10.5,20.7c2.8,5.8,4.7,11.9,5.9,18.2
			c1,5.1,1.8,10.3,2.6,15.5c0.2,1.4,0.2,2.7,0.1,4.1c-0.1,1.9-0.4,3.8,0.1,5.8c0.2,0.6,0.1,1.4-0.1,2c-0.5,2.3-0.8,4.7-1.2,7
			c-1.1,5.1-2.6,10.1-4.8,14.9c-0.2,0.5-0.3,1.1-0.9,1.4c-3.6-3.3-6.3-7.4-10.3-10.3c-1.1-0.8-1.2-2.4-1.3-3.8
			c-0.9-17.6-5.9-34.3-11.5-50.8c-1.6-4.8-4.2-9.1-9.3-11.1c-1-0.7-1-1.7-1.2-2.7c-0.8-7-2.5-13.8-3.7-20.7c-0.1-0.5-0.1-1-0.1-1.5
			c0-1.3-0.4-2.6-0.8-3.8c-0.2-1-0.3-1.9-0.6-2.8c-2-8.8-4.5-17.3-11.4-23.7c-4.4-4.1-8.4-8.7-13.1-12.5
			C479.6,542.7,478.9,542.3,479.1,541.3z"/>
		<path class="st1" d="M479.1,541.3c3.9,2.7,7.2,6.3,10.6,9.6c1.4,1.3,2.8,2.7,4.1,4.1c4.5,4.4,7.8,9.4,9.4,15.5
			c0.8,3,2,5.8,2.2,8.9c0,0.8-0.4,0.9-1,0.7c-2-1.7-2.4-4.3-3.5-6.6c-1.7-3.6-4.5-5.8-6.8-5.2c-2.4,0.6-3.9,3.8-3.2,7.9
			c0.7,4.8,1.5,9.5,0.8,14.3c-1.4,9.1-4.7,17.1-12.3,22.8c-1.7,1.3-2.8,3.4-4.8,4.3c-5.6,0.8-8.4,4.5-9.4,9.8c-0.2,1-0.4,2-0.6,3
			c-1.5,5.1-5.2,7-10.5,5.3c-1.1-1.4-2.3-2.8-3.3-4.3c-1.7-2.4-3.6-4.6-5.8-6.6c-0.5-0.8-0.7-1.6-0.3-2.6c0.6-1.6,1.2-3.2,1.8-4.8
			c1.5-3.8,1.2-4.5-2.1-6.6c-0.3-0.2-0.5-0.4-0.8-0.7c2.9-7.9,6.9-15.4,10.2-23.1c0.2-0.4,0.5-0.8,0.7-1.2c0.8-0.5,1.4-1.3,2.2-1.7
			c4.5-2.7,8.1-6.1,9.4-11.5c0.9-3.7-0.3-7.2-0.7-10.7c3-6.6,6-13.1,8.9-19.7c0.4-0.9,0.9-1.8,2.1-1.9
			C477.3,541.2,478.2,541.2,479.1,541.3z"/>
		<path class="st1" d="M511.3,611c1-0.5,1.8-0.9,3,0.2c3.4,3.2,5.7,7,7.3,11.4c2.6,6.9,4.4,14.1,6.1,21.3c0.8,3.2,1.6,6.4,2.5,9.6
			c0.9,3.2,1.4,6.5,1.6,9.8c0.2,3.5,1,7,1,10.5c0,1.4,0.5,2.7,1.8,3.4c4,2.3,6.5,6,8.8,9.8c-0.1,3-1.7,5.4-3.3,7.7
			c-0.6,0.8-1.3,1.6-1.8,2.5c-2.7,4.9-6.5,9.1-10,13.4c-0.5,0.6-1,1.2-1.7,1.6c-1.8,1.1-3.5,2.2-5.2,3.3c-1,0.6-2.1,0.8-3.3,0.6
			c-3.3-0.6-6.5-1-9.8-1.6c-2.7-0.4-5.2-1.5-7.7-2.6c-2.2-1-3.7-2.6-5.3-4.2c-0.5-0.5-0.5-1.2-0.4-1.9c1.7-2.7,4.4-3.6,7.3-3.7
			c2.5,0,4.5-0.9,6.2-2.4c5.8-5.3,10.7-11.4,13.6-18.6c2.8-6.8,1.1-13.8-0.9-20.5c-1.3-4.4-2.8-8.9-5.8-12.7
			c-1.7-6.2-3.6-12.2-5.1-18.4c-1.3-5.1-2.1-10.3-0.8-15.5C509.7,612.9,509.8,611.5,511.3,611z"/>
		<path class="st0" d="M516.1,648c1.2,0.5,2,1.4,2.4,2.7c0.9,2.7,2,5.3,3,8c2.1,5.4,2.9,11,2.6,16.7c-0.2,3.6-1.1,6.9-3,10
			c-3,4.9-6.5,9.3-10.2,13.6c-1.4,1.7-3.5,2.5-5.2,3.9c-0.4,0.3-1.1,0.3-1.6,0.3c-0.8,0-1.6,0-2.4,0c-1.6,0-3.1,0.3-4.4,1.6
			c-0.6,0.7-1.4,1.2-2.4,1.1c-3.1-1.1-5.1-3.7-6.9-6.2c-2.3-3.1-3.6-6.7-4.3-10.5c2.9-3.3,6.8-4,10.8-4.2c4.1-0.2,4.8-0.6,6.1-4.5
			c2.5-7.8,3.9-15.7,0.8-23.7c0.2-4.4,2.4-7.6,6.1-9.6C510.4,645.5,513.4,645.7,516.1,648z"/>
		<path class="st0" d="M454.2,635.6c1.3-0.3,2.6-0.4,4-0.4c2.6,0.1,4.3-1.2,5.1-3.6c0.4-1.1,0.5-2.2,0.8-3.3
			c0.4-1.6,0.7-3.4,1.3-4.9c1.8-4,4.6-6.7,9.3-6.7c3.2-0.8,5.5,0.6,7.4,3c1.4,1.8,2.6,3.8,3.5,5.9c3.1,7.2,6.3,14.4,8.3,22
			c0.3,1.2,0.7,2.4,0,3.6c-0.2,0.3-0.4,0.6-0.8,0.7c-7.1,1.2-10.6,6.9-14.8,11.7c-1,1.1-1.9,2.3-3.6,2.1c-0.5-0.2-0.9-0.8-1.6-0.6
			c-1.5-2.8-3-5.5-4.5-8.3c-0.1-0.3-0.1-0.7-0.2-1c5.1-2.9,6.2-5.8,4.1-10.4c-1.5-3.2-5.1-4.1-7.9-1.9c-1.1,0.9-1.7,2.5-3.5,2.2
			c-0.8-0.3-1.2-0.9-1.7-1.5c-1.6-2-3.1-4.1-4.7-6.1C454.2,637.4,454.1,636.5,454.2,635.6z"/>
		<path class="st1" d="M474.2,665.1c1.4,0.4,2.6-0.3,3.2-1.4c1.5-2.7,4-4.6,5.9-7c2.7-3.4,6.3-5.2,10.6-5.4c3.5-0.6,6.5,1.4,7.9,5.3
			c1.9,4.1,2.8,8.4,2.2,12.9c-0.1,1.2-0.4,2.5-0.7,3.7c-0.6,2.7-1.3,5.3-2,7.9c-0.1,0.5-0.3,1.1-0.5,1.6c-0.9,2.3-2.5,3.4-5,3.1
			c-4.1-0.4-7.9,0.5-11.1,3.2c-0.2,0.2-0.6,0-1-0.1c-1.4-5-3-9.9-5.5-14.6c-1.5-2.8-2.8-5.7-4.2-8.5
			C473.8,665.6,473.9,665.3,474.2,665.1z"/>
		<path class="st2" d="M461.1,645.8c1.1-0.5,1.6-1.6,2.4-2.4c1.6-1.8,3.6-2.3,5.9-1.8c1.6,0.4,2.9,1.2,3.6,2.8
			c1.1,2.5,1.9,4.9,1,7.6c-0.9,2.8-1.9,3.5-4.9,3.8c-0.2,0-0.5,0-0.7,0.1c-0.5-0.6-1.1-1.2-1.5-1.8c-1.6-2.3-3.1-4.7-5.1-6.8
			C461.5,646.9,461.4,646.3,461.1,645.8z"/>
		<path class="st3" d="M474.2,665.1c-0.1,0.3-0.2,0.6-0.2,0.9c-0.2-0.3-0.5-0.6-0.7-0.9C473.5,664.8,473.8,664.4,474.2,665.1z"/>
		<path class="st4" d="M501.8,656.7c-0.6-0.7-1.2-1.3-1.8-2c-1.6-1.8-3.6-3-6.1-3.3c0-0.7,0-1.4-0.2-2c-1.7-4.6-2.7-9.4-4.9-13.8
			c-1-1.9-1.6-4-2.3-6c-1-2.8-2.5-5.3-4-7.9c-1.6-2.6-3.6-4.3-6.7-4.6c-0.3,0-0.6-0.2-1-0.3c0.2-0.2,0.4-0.3,0.5-0.5
			c1.6-2.4,3.7-4.3,6.3-5.6c0.7-0.4,1.3-1,1.7-1.6c2.5-4.1,5-8.2,6.4-12.8c1.7-5.4,2-11,0.9-16.5c-0.5-2.3-0.9-4.5-0.5-6.8
			c0.1-0.8,0.2-1.6,0.5-2.3c0.9-3.1,3.8-4.4,6.7-2.9c1.9,1,3.2,2.4,4.1,4.4c1.1,2.6,2.3,5.2,3.4,7.8c0.9,0.8,0.6,2,1.4,2.9
			c0,0.9,0.4,1.8,0.6,2.7c0,0.6,0,1.2,0.3,1.8c1.6,7.2,3.2,14.4,4,21.8c0.1,0.7,0.3,1.3,0.4,2c-1.1,2.8-1.9,5.6-1.5,8.6
			c0.1,0.9,0.1,1.8,0.2,2.7c0.2,2.7,0.6,5.4,1.4,8.1c1.4,4.7,2.7,9.4,4,14.2c0.3,1.1,0.4,2.2,0.6,3.3c-0.9-0.2-1.7-0.5-2.6-0.7
			c-4.2-0.9-8.2,1.1-10,5C502.9,653.7,502.4,655.2,501.8,656.7z"/>
		<path class="st5" d="M505.7,583c-0.6-0.9-1-1.9-1-3c0.3-0.2,0.5-0.4,0.8-0.6c0.7,0.8,0.6,1.7,0.6,2.5
			C506.2,582.4,506.1,582.7,505.7,583z"/>
		<path class="st6" d="M505.7,583c0.1-0.4,0.2-0.8,0.3-1.1c0.7,1.2,0.8,2.5,0.9,3.8c-0.2,0.3-0.4,0.3-0.5-0.1
			C506,584.8,505.6,584,505.7,583z"/>
		<path class="st7" d="M506.3,585.6c0.2,0,0.4,0,0.5,0.1c0,0.5,0,1.1,0.1,1.6C506.5,586.8,506.2,586.3,506.3,585.6z"/>
		<path class="st8" d="M458.7,621.3c-0.9,0-1.7-0.9-1.7-1.8c0-0.8,0.7-1.5,1.5-1.5c0.9,0,1.5,0.5,1.6,1.3
			C460.3,620.5,459.6,621.3,458.7,621.3z"/>
		<path class="st9" d="M451.1,608.1c0.8,0,1.5,0.6,1.5,1.5c0.1,1-0.6,1.8-1.5,1.8c-0.8,0-1.5-0.6-1.6-1.4
			C449.4,609.1,450.1,608.2,451.1,608.1z"/>
		<path class="st10" d="M516.1,712.7c-3.6-0.6-6.9-1.6-10-3.5c-0.3-0.2-0.5-0.5-0.4-0.9c0.2-0.6,0.6-0.5,1.1-0.5
			c0.2,0,0.4,0.2,0.6,0.3c0.1,0,0.2,0.1,0.3,0.2c2.7,1.3,5.5,2.1,8.4,2.7c0.5,0.1,1.1,0.3,1.6,0.5c0.2,0.1,0.2,0.4,0.3,0.5
			c0.1,0.3-0.1,0.5-0.3,0.5C517.2,712.7,516.6,712.7,516.1,712.7z"/>
		<path class="st11" d="M522.2,707.7c-2.5-0.5-4.9-1.5-7.2-2.8c-1.1-0.6-2.1-1.3-3.1-2c-0.3-0.2-0.4-0.5-0.2-0.9
			c0.3-0.5,0.7-0.5,1.2-0.3c0.3,0.2,0.6,0.3,0.9,0.5c2.5,1.7,5.4,2.9,8.3,3.8c0.3,0.1,0.7,0.2,1,0.3c0.3,0.2,0.5,0.4,0.4,0.8
			c-0.1,0.4-0.4,0.5-0.8,0.5C522.5,707.7,522.4,707.7,522.2,707.7z"/>
	</g>
	<path class="st12" d="M252.5,163.3h-21c-9.6,0-17.4-7.8-17.4-17.4v-17.4c0-9.6,7.8-17.4,17.4-17.4h21c3.5,0,6.4,2.8,6.4,6.4v39.4
		C258.8,160.4,256,163.3,252.5,163.3z"/>
	<path class="st13" d="M138.2,505.2c0,0-63.5,15.3-57.3,55.8c-0.4,11.4-3.4,38.3,24.8,54.2s103.9,31.1,122.4,30.4l94.9-3.6
		l17.2-44.3l100.4,14.3c0,0,66.2-97.1,35.5-189s-200.6-15-200.6-15L138.2,505.2z"/>
	<path class="st14" d="M141.5,213.1c0,0,75.5-48.9,76.7-48.6s123.5-2.8,124.1-3.7l69.4,41.9c0,0,19.3,12.8,21.7,37.6l55.3,130.9
		c0,0,28.1,47.4-17.4,53.8c0,0-31.5,19.3-61.8,15.6l-96.3-32.7l-35.5,0.6c0,0-15.6,57.2-35.5,74.3s-45.6,18.3-45.6,18.3l-51.1,6.1
		c0,0-14.7,2.8,1.2-16.5s13.8-16.2,13.8-16.2s-2.1-5.8,2.4-11c0,0-17.1,2.5-41-12.8s-21.1-49.5-21.1-49.5s-2.8-12.8,6.7-45.3
		s6.4-83.2,11.3-107C124.1,225,141.5,213.1,141.5,213.1z"/>
	<polygon class="st15" points="276.2,383.2 308,383.2 306.4,408.5 277.4,408.5 	"/>
	<path class="st16" d="M318.3,211.7l-3,2.7c-13.4,11.9-33.4,12.5-47.6,1.4l-11.2-7.1c0,0,5.2,36.3,5.7,35.4s45.1,0.9,45.1,0.9
		l21.3-1L318.3,211.7z"/>
	<path class="st17" d="M319.4,221.2l-3,2.7c-13.4,11.9-33.4,12.5-47.6,1.4l-11.2-7.1c0,0,5.2,36.3,5.7,35.4s45.1,0.9,45.1,0.9
		l21.3-1L319.4,221.2z"/>
	<path class="st16" d="M318,230.7l-4.2,2.8c-13.4,11.9-33.4,12.5-47.6,1.4l-9.1-7.1c0,0,15.6,156.6,16,155.7c0.5-0.9,33.5,0,33.5,0
		L327,263.2L318,230.7z"/>
	<path class="st18" d="M317.7,205c1.9,23.9,3.7,55.7,3.8,57.3c0,0,0,0.1,0,0.1l-0.8,38.6c0,0.1,0,0.2,0,0.3l-18.1,102.5
		c-0.2,1.2,0.7,2.3,1.9,2.3l0,0c1,0,4.4,0.1,4.6-0.9l12.1-73.7c0-0.1,1.6-10.3,1.7-10.4l14.5-36.7c3-4.8,9.8-19.4,9.9-19.6
		c4.6-8.3,11.6-16-7.9-36.6c-0.1-0.1-0.7-0.8-0.8-0.9c-1.1-1-7.8-8,11.2-20.4c0.1-0.1,0.1-0.1,0.2-0.2c6.6-4.3,11.5-11.2,14-13.8
		c0.6-0.7,0.7-1.7,0.2-2.4L344,160.7c-0.4-0.6-1-0.9-1.7-0.9l-17.5,0.5c-1,0-6.6,15.2-6.7,16.1l-0.3,28.2
		C317.7,204.8,317.7,204.9,317.7,205z"/>
	<path class="st18" d="M255.8,203.7c3.3,24.1,8.9,49,9.6,53.6c0,0,3.5,15.2,3.5,15.3l2.6,30c0,0.1,2,25.1,2,25.2l5.9,77.6
		c0.2,1.2-0.8,2.3-2,2.2l0,0c-1,0-1.7-6.5-2.3-12.1l-7-57.4c0-0.1-7.6-34.3-7.6-34.4l-15.6-36.9c-2.8-4.9-13.4-13.1-13.5-13.3
		c-4.3-8.4-20.1-9.3,0-29.2c0.1-0.1,0.8-0.8,0.9-0.9c5-4.5-8.4-17.4-11.1-20.4c-5.3-5.8-11.4-11.9-13.7-14.5
		c-0.6-0.7-0.3-2.4,0.3-3.1l13.8-21c0.4-0.5,7.8-1.1,8.5-1h16.4c1,0.1,6.2,21.6,6.3,22.6l3,14.7
		C255.6,200.7,255.8,203.5,255.8,203.7z"/>
	<path class="st12" d="M227.5,276.9l-51.6-14.5c-3.8-1.1-5.9-5.1-4.8-8.9l0-25.4c1.1-3.8,5.1-5.9,8.9-4.8l49.7,14.5
		c6.6,2.6,5.1,5.6,5.1,11l-0.3,25.6C233.4,278.3,231.3,278.1,227.5,276.9z"/>
	<g>
		<g>
			<path class="st19" d="M233.7,272l-8.7-14.8c-0.4-0.6-0.8-1.3-1.2-1.8c-1.9-2.4-6.9-8.9-6.9-9.1c-0.1-0.5-0.1-1,0.1-1.4l2.9-9.8
				c0.6-2-0.5-4.1-2.6-4.8l-0.3-0.1c-2-0.6-4.1,0.5-4.8,2.6l-2.9,9.6c-0.2,0.6-0.8,0.9-1.4,0.7c-0.6-0.2-0.9-0.8-0.7-1.4l4.5-14.9
				c0.4-1.4-0.4-2.9-1.8-3.4l-2.4-0.7c-1.4-0.4-2.9,0.4-3.4,1.8l-4.9,16l-0.2-0.1l-1.3-0.4c-0.6-0.2-0.9-0.8-0.7-1.4l3-9.5l1.4,0.4
				l0.8-7.5l-0.8,2.7l1-3.2c0.5-1.5-0.4-3.1-1.9-3.6l-3.1-0.9c-1.5-0.5-3.1,0.4-3.6,1.9l-5.3,17.2c-0.2,0.6-0.8,0.9-1.4,0.7
				l-1.9-0.6c-0.6-0.2-0.9-0.8-0.7-1.4l2.9-9.4l0,0l2.3,0.7l-0.6-6.7v0c0.1-1.2-0.7-2.4-1.9-2.8l-2.4-0.7c-1.4-0.4-2.9,0.4-3.4,1.8
				l-5.4,15.8c-0.4,1.1-1.4,3-2.1,4.9c-0.4,1-0.5,2.1-0.2,3.2l12.3,50.9c0.1,0.3,0,0.6-0.2,0.9l-19.3,27.9c-0.4,0.6-0.1,1.5,0.6,1.7
				l59,16.4c0.6,0.2,1.3-0.3,1.4-0.9l8.3-58.4C236,277.3,235.3,274.4,233.7,272z"/>
			<polygon class="st19" points="211.3,232.5 211.7,226.9 210.1,232.2 			"/>
		</g>
	</g>
	<path class="st17" d="M221.7,368.5l-68.6-19c-2.7-0.8-4.3-3.6-3.6-6.3l6.4-23.2c0.8-2.7,3.6-4.3,6.3-3.6l68.6,19
		c2.7,0.8,4.3,3.6,3.6,6.3l-6.4,23.2C227.3,367.6,224.5,369.2,221.7,368.5z"/>
	<path class="st17" d="M432.4,664l-103.4-20.8c-3.1-0.6-5.1-3.6-4.5-6.7l9-44.8c0.6-3.1,3.6-5.1,6.7-4.5L443.6,608
		c3.1,0.6,5.1,3.6,4.5,6.7l-9,44.8C438.4,662.6,435.5,664.6,432.4,664z"/>
	<path class="st19" d="M409,690.5c-1.7-0.6-3.5-1.1-5.3-0.9c-1.3,0.1-1.5-0.1-1.6-1.5c-0.1-2.1-0.8-4-1.7-5.9
		c-1.1-2.3-2.9-3.8-5.2-4.7c-0.7-0.3-1.5-0.5-2.3-0.6c-5-0.8-9.9-1.3-15-0.6c-5.2,0.7-9,3.5-11.7,7.9c-1.2,2.1-1.9,4.4-2.5,6.7
		c-0.3,1.1-0.5,2.2-0.8,3.3c-1.2,0.1-2-0.6-3-1c-1.6-0.7-3.3-0.8-5-0.7c-2,0.2-3.7,0.9-5.1,2.4c-1,1.1-1.9,2.3-2.6,3.5
		c-1.3,2.2-3.3,3.5-5.7,4c-2.1,0.5-4,0.1-5.2-1.7c-2.6-3.6-5.5-7-7-11.3c-0.9-2.7-1.1-5.3-0.6-8.1c0.8-4.7,1.6-9.4,2.4-14.2
		c0.2-1.2,0.1-2.3-0.9-3c0.7-0.4,0.9-1,1-1.7c1.2-6.6,2.4-13.1,3.6-19.7c0.8-0.2,1.6-0.2,2.4,0c17.4,3.5,34.8,6.9,52.2,10.4
		c8.7,1.7,17.4,3.6,26.1,5.3c0.6,0.1,1.1,0.2,1.5,0.6c-1,3.8-2,7.6-3,11.5c-1.5,5.8-3,11.6-4.5,17.4
		C409.2,688.9,409.1,689.7,409,690.5z"/>
	<path class="st20" d="M405.9,716.7c0,1-0.9,2-1.9,2c-1,0-2-1-1.9-2c0.1-1,1.2-1.9,2.1-1.8C405.1,715,405.9,715.9,405.9,716.7z"/>
	<path class="st21" d="M373,714.2c-0.9,0.1-2-1-2-1.9c0-0.8,0.8-1.8,1.6-1.9c0.9-0.2,2,0.7,2.2,1.7C374.9,713,373.9,714.1,373,714.2
		z"/>
	<path class="st22" d="M380.3,723c0.1,1-0.6,1.8-1.5,2c-1.1,0.2-2-0.6-2-1.8c0-1,0.7-1.7,1.7-1.8C379.4,721.4,380.2,722.1,380.3,723
		z"/>
	<path class="st23" d="M401.4,704.5c0.1,1-0.6,1.8-1.6,1.8c-1,0-1.8-0.6-1.9-1.5c-0.1-1,0.7-2,1.8-2
		C400.6,702.8,401.4,703.5,401.4,704.5z"/>
	<g>
		<path class="st1" d="M409,690.5c1.7,1.4,3,3.1,4,5c0.4,0.8,0.8,1.6,1.3,2.4c1.6,2.5,2.3,5.2,2.4,8.1c0,1.6,0.2,3.2,0.3,4.8
			c0.2,1.7,0.5,3.3,1.2,5c1,2.6,1.9,5.3,2.8,8c0.5,1.9-0.9,1.6-1.8,1.3c-5-1.9-9.1-0.5-12.9,3c-1.7,1.6-3.9,2.3-6.3,2.4
			c-1.7,0-3.4,0.2-5.1,0.2c-5.3,0-9.3,2.6-13.1,5.8c-5.5,0.5-10.9-0.1-16.2-1.4c-5.8-1.3-11.4-3.2-17-5.1c-2-0.7-4-1-6-0.9
			c-5.3,0.3-6.8,2.6-5.1,7.6c0.2,0.4,0.4,0.8,0.6,1.3c0.1,0.2,0.3,0.5,0.4,0.7c0.1,0.2,0.3,0.5,0.4,0.7c0.1,0.1,0.1,0.2,0.2,0.3
			c0.2,0.2,0.4,0.4,0.5,0.5c0.1,0.1,0.2,0.2,0.3,0.3c0.2,0.2,0.4,0.3,0.6,0.5c0.1,0.1,0.2,0.2,0.3,0.3c0.2,0.2,0.4,0.4,0.6,0.6
			c0.4,0.4,0.6,0.9,0.6,1.5c-0.1,0.4-0.3,0.8-0.8,0.9c-0.7-0.1-1.2-0.6-1.7-1c-0.3-0.3-0.6-0.5-0.9-0.8c-0.3-0.3-0.6-0.5-0.9-0.8
			c-0.2-0.2-0.4-0.3-0.6-0.5c-0.1-0.1-0.2-0.2-0.3-0.3c-0.2-0.2-0.5-0.3-0.7-0.5c-0.1-0.1-0.3-0.2-0.4-0.2c-0.3-0.1-0.6-0.3-0.9-0.4
			c-5.9-2.9-11.1-7-15.4-11.6c-5.4-5.8-9.9-12.8-7.8-21.7c0.1-0.8,0.3-1.6,0.4-2.4c0.2-2.3,0.9-4.5,2-6.5c0.7-1.3,1.4-2.6,1.4-4.2
			c0-0.7,0.1-1.4,0.5-2c1.3-2,1.2-4.3,1.7-6.5c0.5-2.3,0.8-4.5,0.4-6.8c-0.1-0.3,0-0.7,0-1c-0.6-4.8,1.8-8.3,5.2-11.2
			c2.1-1.8,4.5-2,7.1-1.7c2.1,0.7,1.9,2.3,1.6,3.9c-0.6,4.4-1.6,8.8-2.3,13.2c-1.2,8,3.1,13.7,8,19.2c1.9,2.1,4.2,1.2,6.3-0.1
			c1.6-1,2.6-2.5,3.6-4c2.8-4.2,6.8-5.7,11.6-4.3c2.7,0.8,3.6-0.1,4.3-2.6c1.1-4.1,2.8-8,6.4-10.6c2.7-2,5.7-3.3,9.1-3.5
			c4.3-0.3,8.6-0.1,13,0.4c5.6,0.7,9.3,3.7,10.6,9.2c0.6,2.5,1.6,3.9,4.2,4C407.5,689,408.2,689.8,409,690.5z"/>
		<path class="st0" d="M339.4,742.5c0.5,0.5,1.1,0.9,1.6,1.4c1.4,0.6,2.4,1.7,3.5,2.7c0.3,0.3,0.6,0.6,1,0.9c0.3,0.3,0.6,0.6,1,0.9
			c0.6,0.5,1.2,1,1.7,1.5c3.2,4.2,5.8,8.8,9.2,12.9c0.7,0.8,1,1.8,0.6,2.8c-1,2.9-0.5,5.7,0.9,8.2c2.5,4.5,4.3,9.3,5.7,14.2
			c0.6,2.3,1.5,4.6,0,6.9c-0.9-0.9-1.1-2.2-1.8-3.2c-2.5-3.8-4.8-7.7-7.3-11.5c-1.2-1.8-3-3.2-4.7-4.4c-3.2-2.3-6.6-4.4-10.2-6.1
			c-3.2-1.5-6.3-3.2-9.4-4.8c-3.9-2-7.8-4.3-11.5-6.6c-3-1.9-5.8-3.9-8.6-6.1c-1.6-1.3-3.2-2.5-4.5-4.1c-2-2.4-2.6-5-1.6-7.9
			c0.3-0.8,0.4-1.6,0.9-2.2c1.2-1.5,0.9-2.8,0-4.4c-1.2-2.2-1.7-4.7-2.1-7.2c-0.5-3.3-0.1-6.5,1.3-9.7c1.7-3.8,3.5-7.3,6.5-10.3
			c0,0.7,0.1,1.4,0,2c-0.2,2.9,0.5,5.6,1.8,8.2c1.2,2.4,2.4,4.9,3.5,7.4c1.1,2.4,2.7,4.2,5,5.4c2.2,1.2,4.1,2.8,5.9,4.6
			c1.2,1.2,2.6,2.2,4.1,3c1.4,0.8,2.7,1.6,4.1,2.4c0.2,0.3,0.4,0.5,0.7,0.6l0.1,0.1c0.1,0.3,0.3,0.5,0.6,0.5l0.1,0.1
			c0.1,0.3,0.3,0.5,0.6,0.5c0.3,0.3,0.6,0.6,0.9,0.8C338.9,742.3,339.1,742.5,339.4,742.5z"/>
		<path class="st1" d="M364.5,795c0.1-2.5-0.4-4.9-1-7.3c-1.4-4.9-3.3-9.6-5.8-14c-1.1-1.8-1.3-3.8-1.2-5.9c0-1.2,0.4-2.2,1.4-2.9
			c3.4-0.8,5.3,1.6,7,3.7c3.7,4.5,6.7,9.4,8.3,15.1c0.7,2.4,1.4,4.8,2.6,7c2.1,3.9,4.9,7,8.9,9.1c8.7,6.3,18.6,9.5,29.1,10.8
			c3.9,0.5,7.8,0.9,10.7-2.6c0.5-0.6,1.3-0.9,2.1-1.1c7.2-1.5,14.3-4.1,21.8-3.3c1.6,0.2,2.6-0.4,3.4-1.7c2-3.6,5-6.8,5.2-11.4
			c0-0.7,0.3-1.4,1.2-1.4c1,3.3,1.4,6.7,1.4,10.1c0,1.4-0.3,2.7-0.9,4c-1.5,3-2.9,6-5.3,8.3c-0.6,0.6-0.9,1.3-0.8,2.1
			c0.1,2.2-1,3.7-2.7,4.8c-1.6,1.1-3.2,2.1-5.2,2.4c-3.6,0.6-7.1,1.5-10.8,1.8c-0.9,0.1-1.8,0.4-2.7,0.5c-1.1,0.2-2.3,0.5-3.4,0.3
			c-1.9-0.4-3.9-0.2-5.8-0.2c-3,0.1-5.9,0-8.9-0.2c-7-0.6-13.7-2.4-20.4-4.2c-2.8-0.8-5.5-2.2-8-3.8c-2.8-1.8-5.5-3.7-7.9-6
			c-1-1-2.2-2-3.4-2.8C369.3,803.3,366.6,799.4,364.5,795z"/>
		<path class="st0" d="M381.6,735.8c0.4-0.4,0.8-0.8,1.2-1.2c2.6-3.1,6.1-4.3,10-4.6c2.4-0.2,4.8-0.4,7.2-0.4c2.4-0.1,4.4-1,6.2-2.5
			c0.4-0.3,0.7-0.6,1-0.9c3.8-3.6,8-4,12.6-1.6c1.2,0.6,1-0.3,1.1-0.8c0.2,0.2,0.4,0.3,0.4,0.5c0.7,3.8,2.5,7.1,4.6,10.3
			c0.2,1.5,1.4,2.6,1.7,4.1c2,6.3,2.7,12.7,3.4,19.2c-4.7,0.4-7.3,3.7-10.2,6.8c-2.9,3-6.8,4-11,2.4c-3.1-1.2-6.4-1.9-9.6-2.4
			c-4.7-0.8-7.8,0.5-10.5,4.5c-0.6,0.9-0.8,2.6-2.6,2.1c-1.6-2.3-2.5-4.9-3-7.5c-1-4.7-2.7-9.1-4.5-13.6
			C377.5,745,377.2,740,381.6,735.8z"/>
		<path class="st0" d="M458.1,789.1c-0.6,0.5-0.5,1.2-0.5,1.9c0,2.2-0.6,4.3-1.8,6.2c-1.3,2.1-2.6,4.3-3.9,6.4c-1,1.5-1.4,1.7-3.1,1
			c-1.4-0.6-2.9-0.7-4.4-0.4c-5.4,1-10.8,2-16.1,3.1c-2.1,0.4-4.2,1.3-5.2,3.5c-0.3,0.8-1,0.9-1.7,0.9c-3.8,0-7.5,0-11.3-0.7
			c-4.3-0.8-8.5-1.8-12.6-3.1c-5.1-1.7-9.4-4.5-13.7-7.6c-1.6-3.9-0.4-7.4,3.5-10c1.1-0.8,2.4-1.3,3.6-1.7
			c5.5,0.2,10.3,2.8,15.4,4.3c1.4,0.4,2.8,1,4.2,1.4c3.3,1,6,0.6,8.9-1.7c6.8-5.4,14.6-5.7,22.7-3.6c3.4,0.9,3.8,0.6,4.6-2.8
			c0.9-3.8-0.5-7.5,0-11.2c0.9-1.9,0.6-3.9,0.5-5.9c0-1.4-0.3-2.9,0.7-4.2c2,1.8,3.4,4.1,4.7,6.6c1.9,3.6,3.4,7.4,4.2,11.4
			c0.2,0.9,0.5,1.8,0.5,2.7C457.4,786.7,457.7,787.9,458.1,789.1z"/>
		<path class="st24" d="M448,764.9c0.1,2.7,0.2,5.5,0.3,8.2c0,1,0,1.8-1.1,2.3c-1.5,0.1-1.9-1.2-2.3-2.1c-2.5-6-6.2-10.8-12.4-13.4
			c-0.8-0.3-1.6-0.9-1.8-1.9c-1.2-3.9-2.2-7.9-2.3-12c0-1.3-0.6-2.7-0.9-4c-0.3-1.3-0.6-2.7-0.9-4c-0.1-0.6-0.7-1.5,0.6-1.5
			c4.3,6,8.6,12,12.8,18.1C442.6,758.1,445,761.7,448,764.9z"/>
		<path class="st25" d="M427.4,736.4c-0.5,0.4-0.5,1-0.6,1.5c-0.6-1-1.5-2-0.8-3.4C426.5,735.1,427.3,735.5,427.4,736.4z"/>
		<path class="st4" d="M391.1,789.1c-0.7,0.4-1.4,0.8-2.1,1.1c-3.7,1.8-5.7,4.6-5.2,8.9c0,0.3,0,0.7,0,1c-5.4-2.3-8.3-6.8-10.3-12.1
			c-0.8-2.1-1.4-4.3-2.1-6.5c-0.8-2.6-2.1-5-3.6-7.3c-1.1-1.6-2.2-3.2-3.3-4.8c-1.7-2.4-3.9-4.1-6.9-4.7c-2.8-4-6.2-7.7-8.6-12.1
			c-0.5-1-1.3-1.8-1.9-2.8c-0.3-0.4-0.5-0.9-0.9-1.3c-0.3-0.3-0.6-0.6-0.9-0.9c-0.3-0.5-0.7-0.9-1.1-1.3c-1-1.1-2.5-1.8-2.9-3.5
			c-0.4-0.4-0.7-0.8-1-1.2c-0.1-0.3-0.3-0.4-0.5-0.5l-0.1-0.1c-0.2-0.3-0.4-0.5-0.6-0.6l0,0c-0.2-0.2-0.4-0.5-0.6-0.7v0
			c-0.3-0.2-0.5-0.4-0.7-0.8c0-0.2-0.1-0.4-0.3-0.5c-0.1-0.3-0.3-0.5-0.5-0.7c-0.4-0.7-0.8-1.4-1.1-2.1c-1.7-3.9,0.2-6.7,3.7-7.6
			c2.8-0.7,5.7-0.6,8.4,0.5c5.1,2,10.4,3.3,15.6,5c3.2,1,6.4,1.4,9.7,1.6c2.7,0.2,5.5,0.3,8.2,0.4c0,0.7-0.4,1.3-0.7,1.9
			c-2.4,3.4-2,7.1-0.9,10.8c0.4,1.2,0.9,2.3,1.4,3.5c1.3,3,2.6,6,3.1,9.3c0.4,2.3,1,4.6,2.1,6.8c0.5,1,0.8,2.1,1.2,3.2
			c0.6,1,0.4,2,0.1,3c-1.1,4.7-0.7,9,2.7,12.8C391,787.5,391.5,788.2,391.1,789.1z"/>
		<path class="st26" d="M341.6,743.2c1.3,1,2.5,2.1,3.4,3.5l-0.1,0.3l-0.2,0.2l-0.3,0.1c-1.4-0.8-2.5-2-3.4-3.3
			C341.2,743.7,341.4,743.4,341.6,743.2z"/>
		<path class="st26" d="M337.1,738c0.3,0.1,0.5,0.3,0.5,0.7C337.5,738.5,337.3,738.2,337.1,738z"/>
		<path class="st26" d="M336.5,740c-0.4,0-0.6-0.2-0.7-0.6C336.1,739.6,336.3,739.8,336.5,740z"/>
		<path class="st26" d="M337.9,739.2c0.4,0.1,0.6,0.4,0.7,0.8C338.2,739.9,338,739.6,337.9,739.2z"/>
		<path class="st26" d="M337.3,740.6c-0.3,0-0.5-0.2-0.6-0.5C336.8,740.3,337,740.4,337.3,740.6z"/>
		<path class="st26" d="M338.6,740c0.4,0.1,0.6,0.3,0.6,0.7C338.9,740.6,338.6,740.4,338.6,740z"/>
		<path class="st26" d="M337.9,741.2c-0.3,0-0.5-0.2-0.6-0.5C337.5,740.9,337.7,741,337.9,741.2z"/>
		<path class="st26" d="M340,741.4c0.3,0,0.5,0.2,0.5,0.5C340.3,741.8,340.1,741.6,340,741.4z"/>
		<path class="st26" d="M339.4,742.5c-0.3,0-0.5-0.2-0.5-0.5C339,742.2,339.2,742.4,339.4,742.5z"/>
		<path class="st26" d="M339.3,740.7c0.4,0.1,0.6,0.3,0.6,0.6C339.7,741.2,339.5,740.9,339.3,740.7z"/>
		<path class="st27" d="M345,746.6c0.5,0.3,0.8,0.7,1,1.2c-0.3,0.3-0.5,0.4-0.9,0.1c-0.3-0.2-0.5-0.4-0.8-0.6l0.2-0.1
			c0.1-0.2,0.2-0.3,0.3-0.4L345,746.6z"/>
		<path class="st28" d="M346.6,748.5c0.6,0.3,0.6,0.9,0.7,1.5c-0.6-0.3-1.2-0.7-1.5-1.4C346.1,748.3,346.3,748.3,346.6,748.5z"/>
		<path class="st29" d="M346.6,748.5c-0.3,0-0.5,0-0.8,0.1c-0.2-0.2-0.4-0.5-0.6-0.7c0.3,0,0.6,0,0.9-0.1
			C346.2,748.1,346.4,748.3,346.6,748.5z"/>
		<path class="st30" d="M430.7,817.6c0,0.8,0.3,1.6-0.2,2.3c-0.1,0.2-0.3,0.4-0.5,0.4c-0.2,0-0.5-0.1-0.5-0.3
			c-0.2-0.4-0.4-0.8-0.5-1.3c-0.3-2.7-0.3-5.5-1.1-8.1c-0.1-0.5,0.1-0.9,0.6-1.1c0.5-0.2,1,0.2,1.1,0.9
			C430,812.9,430.3,815.3,430.7,817.6z"/>
		<path class="st31" d="M440.4,816.7c0,0.7,0,1,0,1.4c0,0.2-0.2,0.4-0.4,0.5c-0.4,0.2-0.7-0.1-0.8-0.3c-0.3-0.7-0.6-1.5-0.7-2.3
			c-0.2-2.3-0.8-4.5-1.3-6.7c-0.1-0.4-0.1-0.9,0-1.3c0-0.1,0.3-0.3,0.5-0.4c0.1,0,0.2,0,0.3,0.1c0.3,0.4,0.6,0.7,0.7,1.1
			C439.3,811.5,439.9,814.2,440.4,816.7z"/>
		<path class="st32" d="M448.8,814.9c0,0.1,0,0.3,0,0.5c-0.1,0.2-0.2,0.4-0.4,0.5c-0.4,0.2-0.6-0.1-0.8-0.4
			c-0.1-0.2-0.2-0.4-0.3-0.6c-0.3-2.5-1-4.8-1.8-7.2c-0.1-0.2-0.1-0.5,0-0.7c0.1-0.3,0.2-0.6,0.5-0.8c0.3-0.2,0.7,0,0.8,0.3
			c0.6,1.7,1.1,3.4,1.6,5.2C448.6,812.8,448.6,813.8,448.8,814.9z"/>
		<path class="st1" d="M391.1,789.1c-0.5-0.5-0.9-1-1.4-1.5c-3.4-3.7-3.9-8.1-2.9-12.8c0.3-1.2,0.6-2.4,0.9-3.7
			c0.3-0.6,0.6-1.2,0.9-1.8c2.2-5.1,6.9-6.3,10.9-5.8c3.6,0.5,7.2,1.2,10.6,2.6c2.3,1,4.4,0.8,6.6,0.1c2.3-0.8,4.3-2.1,5.6-4.2
			c0.4-0.6,0.7-1.2,1.1-1.8c1.4-2.2,3.3-3,5.8-2.7c0.6,0.1,1.1,0.2,1.7,0.3c2.1,1.2,4.1,2.3,6.2,3.4c2.1,1.2,3.8,2.8,5.1,4.9
			c1.4,2.2,2.8,4.4,3.8,6.8c0.3,0.8,0.7,1.7,1.4,2.3c0.1,0.9,0.2,1.8,0.4,2.7c0.8,3.8,0.3,7.5-0.6,11.1c-0.4,1.6-1.1,1.9-2.8,1.4
			c-0.1,0-0.2-0.1-0.3-0.1c-5-2.7-10.4-1.9-15.7-1.3c-1.8,0.2-3.5,1.1-5,2c-1.9,1.1-3.7,2.2-5.2,3.9c-0.6,0.8-1.5,1-2.5,0.9
			c-2.4-0.3-4.7-0.5-7-1.3c-4.9-1.9-9.8-3.7-14.8-5C392.9,789.3,392,789.3,391.1,789.1z"/>
		<path class="st1" d="M407.3,754c-0.3,0-1-0.1-1.7,0c-2.1,0-3.7-0.9-5-2.4c-2.5-2.8-3.4-6.4-4.3-9.9c-0.4-1.4,0.2-2.7,1.3-3.7
			c0.7-0.6,1.4-1.2,2.3-1.5c2.4-0.8,4.8-1.5,7.1-2.3c0.7-0.2,1.3,0,1.9,0.4c1.2,0.8,2.3,1.6,2.9,2.8c1.4,2.6,2.6,5.3,3.5,8.1
			c1.4,4.7-2.3,7.9-5.6,8.4C409,754,408.3,753.9,407.3,754z"/>
		<path class="st33" d="M344.9,746.8c0,0.2-0.1,0.3-0.3,0.4l0-0.3L344.9,746.8z"/>
	</g>
	<path class="st34" d="M467.1,564c0.2,0.3,0.5,0.5,0.6,0.8c2.8,7.2,0.8,14.7-4.5,19.1c-1.5,1.2-3.1,2.3-4.9,3.1
		c-0.9,0.5-1.4,0.3-1.3-0.8c2-4.5,4.1-9.1,6.1-13.6C464.4,569.8,465.8,566.9,467.1,564z"/>
	<path class="st19" d="M326,139.3c0-26.9-19.3-48.7-43.1-48.7s-43.1,21.8-43.1,48.7c0,10.7,3.1,20.6,8.3,28.7h0l8.4,40.7
		c0,0,28.4,42.4,61.8,3v-29.6l7.9-21.3l0.5-3.3C329.5,151.1,326,146.9,326,139.3z"/>
	<path class="st35" d="M221.1,119.9c-1.6-1.4-2.8-3-3-5.2c-0.2-2.7-0.3-5.5,1.2-8c0.9-1.5,2.1-2.7,3.9-3.2c1.6-0.5,3.3-1,4.9-1.5
		c0.6-0.2,1-0.6,0.9-1.3c-0.2-1.9,0.6-3.6,0.7-5.4c0.1-1.1,3.5-6.2,4.7-7.8c0.7-0.9,1.9-1.3,2.9-1.7c0.5-0.2,1.1-0.3,1.2-1
		c0.1-1.6,1-2.8,2.4-3.6c1.7-1,3.4-1.9,5.4-1.8c2.5,0.2,4.9,0.8,7.1,2.1c1.5,0.9,2.9,0.1,3.1-1.6c0.2-1.4,0.2-2.7,0.4-4.1
		c0.6-3.2,3.1-5.1,6.4-5c1.8,0.1,3.4,0.5,4.8,1.6c1.4,1,2.8,2,4.1,3.1c0.9,0.7,1.7,1.6,2.9,1.9c0.5-1.1,1-2.2,1.6-3.3
		c1.2-2.5,3.2-3.8,6-3.8c0.9,0,1.8-0.1,2.7,0c1.3,0.1,2.1-0.2,2.7-1.5c0.5-1,1.5-1.3,2.6-1.5c1.9-0.3,3.9-0.2,5.8,0.4
		c4.9,1.7,9.1,4.2,11.8,8.8c0.4,0.8,1,1.1,1.8,1.4c2.3,0.8,2.2,0.8,3.9-1c0.5-0.5,0.9-1.1,1.4-1.6c2.5-2.4,6.5-2.2,8.7,0.6
		c0.1,0.2,1.4,3.2,2.3,4.1c0.8,0.9,2.1,1.4,3,2.2c1.4,1.2,2,2.8,2.1,4.5c0.2,1.8,0.1,3.6-0.3,5.4c1.2,0.7,2.3,0.3,3.4,0.2
		c1.9-0.1,3.6,0.2,5.3,0.9c2.8,1.2,4.3,3.6,3.7,6.5c-0.3,1.4,0,2.3,1,3.2c3.3,3.1,4,8.3,1.8,12.3c-0.5,1-1.2,1.9-1.8,2.9
		c-3.7,1.4-7.1,0.2-10.3-1.5c-1-1.9-1.6-4-2.6-5.9c-2-5-3.9-10-5.6-15.1c-1.8-5.4-5.3-8.8-10.7-10.7c-6.3-2.2-12.6-4.2-19.2-4.6
		c-4.8-0.3-9.5,0.3-14.3,0.9c-1.9,0.3-1.7,1.1-0.7,2.2c1.2,1.5,3,1.8,4.7,1.6c6.4-0.8,12.7,0.3,19,1.2c10.8,1.6,18,7.8,23,16.9
		c1.5,2.8,2.9,5.7,4.3,8.6c0.4,1.5,1.8,2.8,1.3,4.6c-3.9,3.2-4.6,7.8-5.6,12.3c-0.4,1.8-0.4,3.6-1.4,5.2c-0.7,0.6-1.3,0.2-1.9-0.1
		c-3.7-2.4-4.4-6.5-5.3-10.3c-0.5-1.8-1-3.5-3.1-4.1c-0.7-0.2-1.4-0.6-1.6-1.2c-1.1-3.6-4.2-4.4-7.1-5.7c-2.5-1.1-4.4-3.2-6.2-5.3
		c-0.7-0.6-1.9-1.5-3,0c-0.3,0.4-5.8,6.4-10,6.4c-2.2,0-10.9-1.5-13.8-4.3c-1.4-1.4-2.4-1.3-3.7,0.1c-1.4,1.4-9.2,5.1-11.1,4.2
		c-3.9-2-5.6,0.2-7.7,2.9c-2.8,3.5-6,6.8-11.1,6.2c-1.1-0.1-1.5,0.7-1.9,1.6c-0.4,0.9-0.7,2-2.1,1.9c-0.8-0.6-1-1.5-1.4-2.3
		c-1.8-3.4-4.7-4.6-8.5-3.6C225.2,121,223.1,121.4,221.1,119.9z"/>
	<path class="st12" d="M334.8,119.8c-0.5,2.5-6-26.8-25-29.2c-20-2.6-30.5-4.9-30-7.4c0.5-2.5,14.2-4.8,32.9-1
		C331.5,86.1,335.4,117.3,334.8,119.8z"/>
	<path class="st12" d="M345.7,162.4h-15.2c-3.5,0-6.4-2.9-6.4-6.4v-32.7c0-3.5,2.9-6.4,6.4-6.4h15.2c9.6,0,17.4,7.8,17.4,17.4v10.7
		C363.1,154.7,355.3,162.4,345.7,162.4z"/>
	<g>
		<g>
			<path class="st17" d="M223.9,169.4c-0.1,0.2-0.2,0.4-0.3,0.6c0,0.1,0,0.1-0.1,0.2c0.1-0.2,0.1-0.2,0-0.1
				c-0.1,0.1-0.1,0.2-0.1,0.3c-0.2,0.4-0.4,0.8-0.6,1.3c-0.2,0.4-0.5,0.8-0.7,1.2c-0.1,0.2-0.3,0.4-0.4,0.6
				c-0.1,0.1-0.1,0.2-0.2,0.3c0.2-0.3,0,0-0.1,0.1c-0.2,0.3-0.4,0.5-0.4,0.9c0,0.3,0.1,0.7,0.4,0.9c0.4,0.4,1.3,0.6,1.8,0
				c1.4-1.7,2.4-3.5,3.1-5.6c0.2-0.6-0.3-1.4-0.9-1.5C224.8,168.4,224.2,168.7,223.9,169.4L223.9,169.4z"/>
		</g>
	</g>
	<g>
		<g>
			<path class="st17" d="M216.7,181.4c-1.9,3.1-1.2,7.5,1.6,9.8c0.5,0.4,1.3,0.5,1.8,0c0.4-0.4,0.5-1.4,0-1.8
				c-0.3-0.2-0.5-0.5-0.8-0.7c-0.1-0.1-0.1-0.1-0.2-0.2c0.1,0.1,0,0,0-0.1c-0.1-0.1-0.2-0.3-0.3-0.4c-0.1-0.2-0.2-0.3-0.3-0.5
				c-0.1-0.2,0,0.1,0-0.1c0-0.1-0.1-0.2-0.1-0.3c-0.1-0.3-0.2-0.7-0.3-1c0,0,0-0.3,0-0.1c0,0.2,0-0.1,0-0.2c0-0.2,0-0.4,0-0.6
				c0-0.2,0-0.3,0-0.5c0-0.1,0-0.2,0-0.3c0,0.2,0,0.1,0-0.1c0.1-0.4,0.1-0.7,0.3-1c0,0,0.1-0.3,0.1-0.2c-0.1,0.1,0.1-0.2,0.1-0.1
				c0.1-0.2,0.2-0.3,0.3-0.5c0.4-0.6,0.1-1.4-0.4-1.7C217.8,180.7,217,180.9,216.7,181.4L216.7,181.4z"/>
		</g>
	</g>
	<g>
		<g>
			<path class="st17" d="M223.1,198.8c1.4,2.6,3.4,4.9,5.9,6.5c0.5,0.4,1.4,0.1,1.7-0.4c0.3-0.6,0.1-1.3-0.4-1.7
				c-0.3-0.2-0.6-0.4-0.8-0.6c0.2,0.2,0,0-0.1-0.1c-0.1,0-0.1-0.1-0.1-0.1c-0.1-0.1-0.3-0.2-0.4-0.3c-0.5-0.4-1-0.9-1.4-1.4
				c-0.2-0.3-0.4-0.5-0.6-0.8c-0.1-0.1,0.2,0.2,0,0c-0.1-0.1-0.1-0.1-0.1-0.2c-0.1-0.1-0.2-0.3-0.3-0.4c-0.4-0.6-0.7-1.1-1-1.7
				c-0.3-0.6-1.2-0.8-1.7-0.4C223,197.4,222.8,198.1,223.1,198.8L223.1,198.8z"/>
		</g>
	</g>
	<g>
		<g>
			<path class="st17" d="M234.4,215.9c1.4,1.1,2.2,2.9,2.2,4.6c-0.1,1.8-1.1,3.5-2.6,4.4c-1.4,0.9-0.1,3,1.3,2.2
				c2.3-1.4,3.7-3.9,3.8-6.6c0.1-2.7-1.3-5.2-3.4-6.8c-0.5-0.4-1.4-0.1-1.7,0.4C233.6,214.8,233.9,215.5,234.4,215.9L234.4,215.9z"
				/>
		</g>
	</g>
	<g>
		<g>
			<path class="st17" d="M239.8,256.9c2,1.8,4,3.6,6.1,5.4c0.5,0.4,1.3,0.5,1.8,0c0.4-0.5,0.5-1.3,0-1.8c-2-1.8-4-3.6-6.1-5.4
				c-0.5-0.4-1.3-0.5-1.8,0C239.3,255.6,239.2,256.4,239.8,256.9L239.8,256.9z"/>
		</g>
	</g>
	<g>
		<g>
			<path class="st17" d="M251.4,274.5c1.3,2,2.4,4.1,3.4,6.3c0.3,0.6,1.2,0.8,1.7,0.5c0.6-0.4,0.7-1.1,0.5-1.7
				c-1-2.2-2.1-4.3-3.4-6.3c-0.4-0.5-1.1-0.8-1.7-0.5C251.3,273.2,251.1,273.9,251.4,274.5L251.4,274.5z"/>
		</g>
	</g>
	<g>
		<g>
			<path class="st17" d="M259,293.2c1.8,4,3.4,8,4.7,12.1c0.5,1.5,2.9,0.9,2.4-0.7c-1.4-4.4-3.1-8.6-5-12.8
				c-0.3-0.6-1.2-0.8-1.7-0.5C258.8,291.9,258.7,292.6,259,293.2L259,293.2z"/>
		</g>
	</g>
	<g>
		<g>
			<path class="st17" d="M340,169.9c0.9,2.1,1.9,4.3,2.8,6.4c0.3,0.6,1.2,0.8,1.7,0.4c0.6-0.4,0.7-1.1,0.5-1.7
				c-0.9-2.1-1.9-4.3-2.8-6.4c-0.3-0.6-1.2-0.8-1.7-0.4C339.8,168.6,339.7,169.3,340,169.9L340,169.9z"/>
		</g>
	</g>
	<g>
		<g>
			<path class="st17" d="M346.6,184c0,0.1,0.1,0.1,0.2,0.2c-0.1-0.1-0.1-0.1,0,0.1c0.1,0.1,0.2,0.3,0.3,0.4c0.2,0.3,0.4,0.6,0.5,0.9
				c0.3,0.6,0.5,0.9,0.7,1.6c0.1,0.3,0.2,0.6,0.2,0.9c0,0.2,0.1,0.3,0.1,0.5c0,0.1,0,0.2,0,0.3c0-0.1,0-0.1,0,0c0,0.7,0.1,1.3,0,2
				c0,0.6,0.6,1.3,1.3,1.3c0.7,0,1.2-0.6,1.3-1.3c0.3-3.1-0.8-6.2-2.8-8.6c-0.4-0.5-1.3-0.5-1.8,0
				C346.1,182.8,346.1,183.4,346.6,184L346.6,184z"/>
		</g>
	</g>
	<g>
		<g>
			<path class="st17" d="M344.3,197.6c-1.7,3.2-3.5,6.2-5.5,9.1c-0.4,0.6-0.1,1.4,0.5,1.7c0.6,0.4,1.3,0.1,1.7-0.4
				c2-2.9,3.9-6,5.5-9.1c0.3-0.6,0.1-1.4-0.5-1.7C345.4,196.8,344.6,197,344.3,197.6L344.3,197.6z"/>
		</g>
	</g>
	<g>
		<g>
			<path class="st17" d="M331.4,214.9c-2.3,3.3-2.6,7.7-1,11.4c0.3,0.6,1.2,0.8,1.7,0.4c0.6-0.4,0.7-1.1,0.5-1.7
				c-1.2-2.9-0.8-6.3,1-8.9c0.4-0.6,0.1-1.4-0.5-1.7C332.4,214.1,331.7,214.4,331.4,214.9L331.4,214.9z"/>
		</g>
	</g>
	<g>
		<g>
			<path class="st17" d="M334.7,234.7c1.4,2.5,3.1,4.9,5.1,6.9c0.5,0.5,1.3,0.5,1.8,0c0.5-0.5,0.5-1.3,0-1.8c-0.5-0.5-0.9-1-1.4-1.5
				c-0.2-0.3-0.4-0.5-0.6-0.8c0-0.1-0.1-0.1-0.1-0.2c-0.2-0.3,0.1,0.1-0.1-0.1c-0.1-0.1-0.2-0.3-0.3-0.4c-0.8-1.1-1.5-2.3-2.2-3.5
				c-0.3-0.6-1.2-0.8-1.7-0.4C334.6,233.4,334.4,234.1,334.7,234.7L334.7,234.7z"/>
		</g>
	</g>
	<g>
		<g>
			<path class="st17" d="M341.8,248.5c1,4.4,0.7,8.9-0.8,13.1c-0.5,1.5,1.9,2.2,2.4,0.7c1.6-4.6,1.9-9.7,0.8-14.5
				C343.8,246.2,341.4,246.9,341.8,248.5L341.8,248.5z"/>
		</g>
	</g>
	<g>
		<g>
			<path class="st17" d="M336.3,271.7c-2.3,2.4-3.9,5.4-4.6,8.7c-0.1,0.6,0.2,1.4,0.9,1.5c0.6,0.1,1.4-0.2,1.5-0.9
				c0.6-2.9,2-5.5,4-7.6c0.5-0.5,0.5-1.3,0-1.8C337.5,271.2,336.7,271.2,336.3,271.7L336.3,271.7z"/>
		</g>
	</g>
	<g>
		<g>
			<path class="st17" d="M328.8,289.5c-1.2,3.9-2.5,7.7-3.7,11.6c-0.5,1.5,1.9,2.2,2.4,0.7c1.2-3.9,2.5-7.7,3.7-11.6
				C331.7,288.6,329.3,288,328.8,289.5L328.8,289.5z"/>
		</g>
	</g>
	<g>
		<g>
			<path class="st36" d="M153.1,345.4c0.2-0.9-0.7-1.3-1.4-0.8c-0.8,0.6-0.2,1.6,0.6,1.7c1.1,0.2,2.6-0.6,3.5-1.1
				c1.3-0.6,2.5-1.4,3.6-2.3c4.6-3.5,8-8.4,12.2-12.3c2.4-2.2,5.2-4.1,8.4-4.9c-0.3-0.1-0.5-0.3-0.8-0.4c1.3,8.3,2.8,16.6,3.9,24.9
				c0.1,0.7,0.2,1.5,0,2.2c-0.4,1.1-1.4,1.3-2.2,0.4c-1.2-1.3-1.5-3.3-1.9-5c-1-4.1-2.1-8.2-3.1-12.4c-0.1-0.4-0.6-0.6-0.9-0.4
				c-3,2.1-5.9,4.1-8.8,6.3c-1.5,1.1-3,2.2-4.4,3.3c-0.8,0.6-1.7,1.5-1.8,2.5c-0.2,2.6,3.6,2.1,5.2,1.7c2.6-0.6,4.9-2.2,6.5-4.4
				c-0.3,0.1-0.6,0.1-0.9,0.2c1.3,1,2.1,2.4,2.5,4c0.2,0.8,1.4,0.5,1.2-0.3c-0.4-1.9-1.5-3.5-3.1-4.7c-0.3-0.2-0.7,0-0.9,0.2
				c-1.3,1.8-3.2,3.1-5.4,3.7c-0.9,0.3-1.9,0.4-2.8,0.4c-2.7-0.1,0.6-2.7,1.1-3.1c4-3,8-5.9,12.1-8.7c-0.3-0.1-0.6-0.3-0.9-0.4
				c1.3,5,2.3,10.1,3.8,15c0.4,1.3,1.2,2.9,2.5,3.5c1.3,0.6,2.6,0,3.2-1.3c0.7-1.6,0.1-3.6-0.1-5.3c-0.4-2.5-0.8-4.9-1.1-7.3
				c-0.8-5.2-1.6-10.4-2.4-15.6c-0.1-0.3-0.5-0.5-0.8-0.4c-5.6,1.5-9.7,5.8-13.5,10c-2,2.2-3.9,4.4-6.1,6.3c-1.1,1-2.3,1.9-3.6,2.6
				c-0.6,0.4-1.3,0.7-1.9,1c-0.3,0.1-0.7,0.3-1,0.4c-0.1,0-1.7,0.5-1.5,0.7c-0.1-0.2-0.1-0.4-0.2-0.6c0,0,0,0.1,0,0.1
				C151.7,345.9,152.9,346.2,153.1,345.4L153.1,345.4z"/>
		</g>
	</g>
	<g>
		<g>
			<path class="st36" d="M185.2,324.5c0.8,8,3,15.8,6.4,23c1.1,2.4,2.7,7.1,6.2,6.5c1.6-0.3,2.9-1.6,4.1-2.6c1.5-1.3,3-2.8,4.4-4.2
				c2.6-2.8,5-5.7,7.2-8.9c1.1-1.6,2.3-3.2,3.1-4.9c0.5-1.1,0.7-2.5-0.6-3.2c-2.5-1.4-5.6,2.8-6.9,4.3c-2.2,2.5-4.2,5.2-6.6,7.4
				c-1.4,1.3-3,2.4-4.7,3.2c-0.6,0.3-1,0.5-1.7,0.4c-0.8-0.1-0.9-0.8-1.3-1.4c-0.5-1.1-1-2.2-1.4-3.4c-1.6-4.5-2.5-9.2-2.6-13.9
				c-0.1,0.2-0.2,0.4-0.3,0.5c1.7-1,3.5,0.7,4,2.3c0.6,1.8,0.2,3.8,0.4,5.6c0.3,2.5,1.6,5.1,4.4,5.3c3.3,0.1,5.3-2.8,6.4-5.5
				c0.8-1.7,2-5-0.3-6.2c-3-1.6-6,3.5-6.9,5.6c-0.3,0.7,0.8,1.4,1.1,0.6c0.7-1.6,1.7-3.3,3.1-4.5c0.8-0.7,2.2-1.2,2.7,0.1
				c0.2,0.6,0,1.5-0.1,2.1c-0.5,1.7-1.3,3.6-2.5,5c-1.2,1.3-3.4,2.3-5,1c-2.8-2.2-1.1-6.9-2.2-9.8c-0.8-2.2-3.4-3.9-5.7-2.6
				c-0.2,0.1-0.3,0.3-0.3,0.5c0.1,3.7,0.6,7.3,1.6,10.8c0.5,1.7,1.1,3.4,1.8,5.1c0.5,1.2,1,3.2,2.2,3.9c1.1,0.6,2.3,0.1,3.3-0.4
				c1.4-0.6,2.6-1.4,3.8-2.4c2.4-1.9,4.3-4.3,6.3-6.6c1-1.1,1.9-2.3,2.9-3.4c0.5-0.5,1-1.1,1.6-1.6c0.6-0.5,3.1-2.3,2.7,0
				c-0.1,0.6-0.8,1.5-1.1,2c-0.4,0.7-0.9,1.5-1.4,2.2c-1.1,1.6-2.3,3.2-3.5,4.8c-2.2,2.8-4.7,5.5-7.3,8c-1.3,1.2-2.7,2.9-4.4,3.4
				c-2.3,0.7-3.3-2-4.1-3.5c-3.9-7.7-6.4-16.1-7.3-24.6C186.3,323.7,185.1,323.7,185.2,324.5L185.2,324.5z"/>
		</g>
	</g>
	<g>
		<g>
			<path class="st36" d="M197.6,361.3c11.7-7.8,23-16.1,33.9-25c-0.4-0.1-0.7-0.2-1-0.3c0.6,1.5,1,3.2,1.1,4.8c0,0.7,0,1.4-0.1,2.1
				c-0.1,1-0.6,1.1-1.5,1.5c-2.9,1.5-5.6,3-8.4,4.8c-5.3,3.3-10.3,7-15.1,11.1c-0.4,0.4-0.1,1.1,0.4,1.1c8.2,0.1,15.1-4.7,21.4-9.3
				c-0.3,0-0.5-0.1-0.8-0.1c1.8,2.1-1.8,3.9-3.3,4.4c-1.5,0.5-2.9,1.1-4,2.3c-1.6,1.9-1.1,5.6,1.9,5.5c0.8,0,0.8-1.3,0-1.3
				c-1,0-1.7-0.9-1.7-1.8c0-0.9,0.6-1.6,1.3-2.1c1.4-1.1,3.2-1.4,4.7-2.1c2.1-1,3.7-3.7,1.9-5.8c-0.2-0.2-0.6-0.3-0.8-0.1
				c-6.1,4.5-12.9,9.3-20.8,9.1c0.1,0.4,0.3,0.7,0.4,1.1c5.2-4.5,10.8-8.6,16.7-12.1c1.4-0.8,2.8-1.6,4.3-2.4
				c0.7-0.4,1.4-0.8,2.2-1.1c0.5-0.3,1.5-0.5,1.8-1c0.3-0.4,0.3-1.3,0.3-1.8c0.1-0.8,0.1-1.6,0-2.4c-0.1-1.6-0.5-3.2-1.1-4.7
				c-0.2-0.5-0.7-0.6-1-0.3c-10.8,8.8-22,17.1-33.6,24.8C196.3,360.6,196.9,361.7,197.6,361.3L197.6,361.3z"/>
		</g>
	</g>
	<g>
		<g>
			<path class="st36" d="M155.3,337.7c-1.1,0.5-2.1,1-3.1,1.6c0.2,0.4,0.4,0.7,0.6,1.1c3.4-2.5,6.4-5.4,9.2-8.6
				c1.3-1.6,2.5-3.2,3.7-4.9c0.6-0.9,1.1-1.8,1.7-2.7c0.5-0.9,1.3-2,1.6-2.9c0.3-1.2-1.3-1.9-2.3-2c-1.4-0.1-2.8,0.6-3.6,1.7
				c-1.2,1.5-1.4,3.5-1.9,5.3c-0.3,0.9-0.8,2.4-1.7,2.9c-0.3,0.2-0.6,0.5-0.9,0.1c-0.3-0.2-0.3-0.8-0.3-1.1c0-0.6,0.1-1.2,0.3-1.8
				c0.6-1.9,1.9-3.6,1.9-5.7c0-1.6-0.6-3.1-2.2-3.8c-0.2-0.1-0.6,0.1-0.7,0.3c-1.8,3.3-2.6,7-2.4,10.7c0.1,0.8,1.3,0.8,1.3,0
				c-0.2-3.5,0.6-7,2.2-10.1c-0.2,0.1-0.5,0.2-0.7,0.3c1.2,0.5,1.4,2,1.3,3.1c-0.2,1.4-1,2.7-1.5,4c-0.5,1.1-0.9,2.4-0.6,3.6
				c0.2,0.9,0.8,1.9,1.8,1.9c1.1,0,1.9-1.2,2.5-2.1c0.8-1.2,1.1-2.6,1.4-3.9c0.3-1.3,0.7-2.8,1.9-3.6c0.9-0.6,2.5-1,3.2,0.2
				c0-0.2,0-0.4,0-0.6c-3.7,7.3-9.1,13.8-15.6,18.7c-0.6,0.5-0.1,1.5,0.6,1.1c1.1-0.5,2.1-1,3.1-1.6
				C156.7,338.4,156,337.4,155.3,337.7L155.3,337.7z"/>
		</g>
	</g>
	<g>
		<g>
			<path class="st36" d="M331.9,635.7c11.1-6.8,24.3-9.3,36.7-12.7c6.8-1.8,13.5-3.6,20.3-5.5c1.5-0.4,3-1,4.5-1.1
				c1.9-0.2,2.8,0.9,3.5,2.5c1.4,3.1,2.6,6.2,3.6,9.4c2.1,6.2,3.7,12.5,4.9,18.9c0.3,1.6,0.5,3.3,0.8,4.9c0.1,0.4,0.2,0.6-0.1,0.8
				c-0.2,0.3-0.7,0.3-1,0.3c-1,0-1.7-0.6-2.2-1.3c-0.8-1.2-1.1-2.8-1.6-4.2c-0.5-1.7-1-3.5-1.5-5.2c-1-3.3-2-6.6-2.9-9.9
				c-0.7-2.4-1.3-5-2.9-6.9c-1.6-2-4.1-2.3-6.5-1.7c-3.1,0.8-6,2.3-9,3.4c-6.9,2.5-14,4.4-21.1,6c-3.7,0.8-7.4,1.3-11,1.9
				c-1.9,0.3-4.7,1.5-4,3.9c0.1,0.2,0.2,0.4,0.4,0.4c7.8,1.5,15.7,0.5,23.3-1.5c3.9-1,7.8-2.2,11.7-3.5c1.9-0.6,3.9-1.5,5.9-1.7
				c2-0.2,3.2,1.2,3.7,3c0.6,2,0.8,4.1,1.1,6.1c0.4,2.5,0.8,4.9,1.2,7.4c0.2-0.3,0.4-0.5,0.6-0.8c-2.5,0.3-3.4-3.2-4.5-4.8
				c-1.3-2.1-3.4-3.4-5.8-4c-5.9-1.6-11.5,1.5-16.4,4.4c-0.7,0.4-0.1,1.5,0.6,1.1c5-2.9,11-6.3,16.9-3.8c2.5,1.1,3.6,3.1,4.9,5.3
				c0.9,1.6,2.2,3.3,4.3,3.1c0.4,0,0.7-0.4,0.6-0.8c-0.7-4.2-1.1-8.6-2.1-12.8c-0.7-3-2.6-5-5.9-4.4c-2,0.3-4,1.2-5.9,1.8
				c-2.1,0.7-4.3,1.3-6.4,2c-4.1,1.2-8.3,2.3-12.5,2.9c-5,0.8-10.1,0.8-15-0.1c0.1,0.2,0.3,0.3,0.4,0.4c-0.4-1.5,1.8-2.1,2.9-2.3
				c1.6-0.3,3.3-0.5,4.9-0.8c3.4-0.6,6.7-1.3,10.1-2c6.5-1.5,12.9-3.5,19.2-5.8c1.5-0.5,2.9-1.1,4.4-1.7c1.6-0.6,3.3-1.4,5.1-1.3
				c3.2,0.2,4.4,3.5,5.1,6.1c1,3.5,2,6.9,3.1,10.4c1,3.2,1.7,6.6,3,9.7c0.8,1.9,2.5,3.8,4.8,3.3c0.8-0.2,1.7-0.7,1.7-1.6
				c0-1.6-0.5-3.4-0.7-5c-1.1-6.6-2.7-13.1-4.9-19.4c-1.1-3.1-2.3-6.2-3.5-9.3c-1-2.3-2.1-4.2-4.9-4c-1.5,0.1-3,0.7-4.4,1
				c-1.8,0.5-3.5,0.9-5.3,1.4c-3.4,0.9-6.9,1.8-10.3,2.8c-7.5,2-15,3.9-22.4,6.1c-6.9,2-13.7,4.4-19.8,8.1
				C330.6,635.1,331.2,636.2,331.9,635.7L331.9,635.7z"/>
		</g>
	</g>
	<g>
		<g>
			<path class="st36" d="M406.7,607.3c2.5,10,5.7,19.9,9.8,29.4c1.7,4.1,3.4,8.6,6.2,12.1c2.1,2.7,5.5,4.8,9,3.2
				c4.8-2.2,5.2-8.1,7.3-12.2c0.1-0.2,0.1-0.6-0.1-0.8c-3.1-2.8-6.7,0.5-9.5,2c-1.2,0.6-2.5,1-3.8,0.4c-1-0.5-1.7-1.5-2.3-2.5
				c-1.2-2.1-2.1-4.5-3-6.7c-1.8-4.6-3.2-9.4-4.3-14.2c-0.3-1.2-0.6-2.4-0.7-3.6c0-0.4-0.1-1,0.2-1.4c0.6-0.8,1.5-0.2,2,0.4
				c0.7,0.9,1,1.9,1.4,3c0.4,1.3,0.8,2.7,1.3,4c0.8,2.5,1.6,5,2.4,7.5c0.5,1.7,1.1,3.4,2.1,4.8c2.1,3.1,5.6,3.7,8.8,1.7
				c3.3-2.2,5.7-6,6.9-9.8c0.7-2.2,2.3-8.5-1.2-9.3c-2-0.4-2.9,1.9-3.5,3.4c-0.6,1.3-1.1,2.5-1.7,3.8c-0.5,1.1-1,2.3-2,3
				c-2,1.4-4.7,0.2-6-1.6c-1.6-2.2-1.8-5.2-1.9-7.8c0-0.8-1.3-0.8-1.3,0c0.2,3.8,0.6,8.4,4.4,10.4c1.4,0.7,3,1,4.5,0.5
				c1.8-0.7,2.7-2.3,3.4-3.9c0.5-1.1,1-2.3,1.5-3.4c0.4-0.8,0.9-2.7,1.8-3.1c2.5-1.1,1.5,5,1.4,5.8c-0.9,4.2-3.5,9.1-7.5,11.2
				c-5,2.6-7.4-2.8-8.6-6.6c-0.8-2.5-1.6-5-2.4-7.5c-0.7-2.1-1.1-4.7-2.4-6.5c-0.8-1.1-2-2.2-3.4-1.5c-1.5,0.8-1.4,2.7-1.1,4
				c0.9,4.9,2.3,9.8,4,14.5c0.9,2.6,2,5.2,3.1,7.7c0.9,1.9,1.9,4,3.9,4.9c2,0.8,4.1-0.1,5.8-1.2c1.8-1.2,4.8-3.4,6.9-1.6
				c0-0.3-0.1-0.5-0.1-0.8c-1.8,3.6-2.2,8.3-5.5,10.9c-3.6,2.9-7.3,0-9.4-3.1c-2.5-3.6-4.1-7.9-5.7-11.9c-1.8-4.2-3.4-8.5-4.9-12.9
				c-1.7-5-3.1-10.1-4.4-15.3C407.8,606.2,406.5,606.5,406.7,607.3L406.7,607.3z"/>
		</g>
	</g>
	<g>
		<g>
			<path class="st36" d="M328.1,625.3c7.6-4.6,15.8-8.1,24.1-11.4c4.1-1.6,8.2-3.2,12.3-4.8c2-0.8,4-1.6,6.1-2.5
				c1.1-0.5,2.6-1.2,2.6-2.6c0-1.2-1.1-1.8-2.1-1.9c-1.7-0.2-3.4,0.8-4.9,1.4c-4.4,1.8-8.7,3.5-13.1,5.2s-8.8,3.3-13.3,4.8
				c-1.1,0.4-2.1,0.7-3.2,1.1c-1,0.3-2,0.8-3,0.9c-0.5,0-1.9,0.1-2-0.7c-0.1-0.6,1.1-1,1.5-1.2c0.6-0.2,1.2-0.5,1.8-0.7
				c4.7-1.9,9.2-4,13.7-6.3c1.8-0.9,9.6-3.9,6.8-7.1c-0.1-0.2-0.4-0.2-0.6-0.2c-5.1,1.9-10.3,3.8-15.4,5.7c-0.5,0.2-1.1,0.5-1.6,0.4
				c-1-0.1-1.2-1.1-1.2-1.9c-0.1-1.3,0.2-2.7,0.8-3.9c0.2-0.4,0.4-1,0.8-1.2s1.2-0.2,1.7-0.2c0.7,0,1.5,0.3,1.6,1
				c0.1,0.4,0,1.1-0.5,1.1c-0.8,0-0.8,1.3,0,1.3c2.6-0.1,2.2-3.7,0.1-4.5c-1.1-0.4-3.1-0.4-3.9,0.4c-1.2,1.1-1.7,3.6-1.8,5.2
				c-0.1,1.3,0,3.3,1.5,3.9c1.6,0.7,3.6-0.5,5-1c4.4-1.6,8.9-3.3,13.3-4.9c-0.2,0-0.4-0.1-0.6-0.2c1.3,1.5-3.6,3.6-4.4,4
				c-2,1-3.9,2-5.9,3c-3.9,1.9-8,3.4-12,5.2c-1,0.5-2.1,1.3-1.8,2.5c0.3,1,1.4,1.4,2.3,1.5c1.7,0.2,3.4-0.6,4.9-1.2
				c2.1-0.7,4.3-1.5,6.4-2.2c4.2-1.5,8.4-3,12.5-4.6c4.2-1.6,8.3-3.4,12.4-5c0.6-0.3,1.4-0.5,2.1-0.3c1.5,0.2,0.5,1.4-0.4,1.8
				c-2,1-4,1.7-6,2.5c-3.9,1.6-7.8,3.1-11.7,4.6c-8.7,3.5-17.4,7.1-25.5,12C326.8,624.6,327.4,625.7,328.1,625.3L328.1,625.3z"/>
		</g>
	</g>
	<g>
		<g>
			<path class="st36" d="M332.1,634.2c-1.1,0.3-2.2-0.3-2.4-1.4c0,0.2-0.1,0.4-0.2,0.6c2.6-2.5,6-4,9.3-5.3
				c3.5-1.3,7.1-2.5,10.6-3.7c7.3-2.4,14.7-4.6,22.1-6.5c7.6-2,15.2-3.7,23-5.2c1.9-0.4,3.6-0.5,5,1c1.2,1.3,1.9,3,2.6,4.6
				c1.4,3.2,2.5,6.5,3.4,9.9c2,7.5,3.4,15.1,6.8,22.1c0.4,0.7,1.4,0.1,1.1-0.6c-3.3-6.7-4.6-14-6.5-21.2c-0.9-3.4-1.9-6.8-3.3-10
				c-1.1-2.5-2.5-6.1-5.3-7.1c-1.7-0.5-3.6,0-5.2,0.4c-2,0.4-3.9,0.8-5.9,1.2c-4.1,0.9-8.1,1.8-12.2,2.8c-7.9,2-15.8,4.2-23.5,6.7
				c-4.3,1.4-8.7,2.8-12.9,4.4c-3.6,1.3-7.1,2.9-9.9,5.6c-0.2,0.2-0.2,0.4-0.2,0.6c0.5,1.8,2.2,2.8,4,2.3
				C333.2,635.2,332.8,633.9,332.1,634.2L332.1,634.2z"/>
		</g>
	</g>
	<g>
		<g>
			<path class="st35" d="M257.5,338.7c3.2,0,3.2-5,0-5C254.2,333.7,254.2,338.7,257.5,338.7L257.5,338.7z"/>
		</g>
	</g>
	<g>
		<g>
			<path class="st35" d="M259.5,369.6c3.2,0,3.2-5,0-5S256.3,369.6,259.5,369.6L259.5,369.6z"/>
		</g>
	</g>
	<g>
		<g>
			<path class="st35" d="M262.3,399.9c3.2,0,3.2-5,0-5S259,399.9,262.3,399.9L262.3,399.9z"/>
		</g>
	</g>
	<g>
		<g>
			<path class="st35" d="M257.5,430.2c3.2,0,3.2-5,0-5C254.2,425.2,254.2,430.2,257.5,430.2L257.5,430.2z"/>
		</g>
	</g>
	<g>
		<g>
			<path class="st35" d="M245.8,459.1c3.2,0,3.2-5,0-5S242.5,459.1,245.8,459.1L245.8,459.1z"/>
		</g>
	</g>
	<g>
		<g>
			<path class="st35" d="M230.6,477c3.2,0,3.2-5,0-5S227.4,477,230.6,477L230.6,477z"/>
		</g>
	</g>
	<g>
		<g>
			<path class="st35" d="M199,491.4c3.2,0,3.2-5,0-5C195.8,486.4,195.8,491.4,199,491.4L199,491.4z"/>
		</g>
	</g>
	<g>
		<g>
			<path class="st35" d="M168,496.2c3.2,0,3.2-5,0-5S164.8,496.2,168,496.2L168,496.2z"/>
		</g>
	</g>
	<g>
		<g>
			<path class="st35" d="M251.9,309.8c3.2,0,3.2-5,0-5C248.7,304.8,248.7,309.8,251.9,309.8L251.9,309.8z"/>
		</g>
	</g>
	<g>
		<g>
			<path class="st16" d="M401.2,209.6c-7.8-0.4-14.4,4.7-18.9,10.6c-5,6.5-8.2,14.6-10.1,22.5c-4.1,17.5-1.7,35.8,3.3,52.9
				c3,10.5,7,20.7,10.9,30.9c0.3,0.7,1.5,0.4,1.2-0.3c-6.6-17.2-13.4-34.7-15.5-53.2c-1.9-16.5,0-34,8.8-48.4
				c4.3-7.1,11.5-14.2,20.4-13.8C402,210.9,402,209.6,401.2,209.6L401.2,209.6z"/>
		</g>
	</g>
	<g>
		<g>
			<path class="st16" d="M146.5,216c7.2,6,13.7,12.8,19.4,20.2c0.5,0.6,1.6,0,1.1-0.6c-5.8-7.5-12.4-14.4-19.6-20.5
				C146.8,214.6,145.9,215.4,146.5,216L146.5,216z"/>
		</g>
	</g>
	<g>
		<g>
			<path class="st16" d="M220.3,380.7c-3.6,22.2-13.5,43.3-28.1,60.4c-4.1,4.8-8.5,9.2-13.3,13.3c-0.6,0.5,0.3,1.4,0.9,0.9
				c17.1-14.7,30.1-34.1,37.2-55.5c2-6.1,3.5-12.3,4.6-18.7C221.6,380.3,220.4,379.9,220.3,380.7L220.3,380.7z"/>
		</g>
	</g>
	<g>
		<g>
			<path class="st16" d="M429.2,327.6c-12.5,2.4-23.7,9.7-31.1,20c-0.5,0.7,0.6,1.3,1.1,0.6c7.2-10.1,18.2-17.1,30.4-19.5
				C430.3,328.6,430,327.5,429.2,327.6L429.2,327.6z"/>
		</g>
	</g>
	<g>
		<g>
			<path class="st37" d="M510.6,544.6c6.7,7.1,7.9,17.3,8.2,26.7c0.2,5.3,0.2,10.6,0.9,15.9c0.6,4.8,1.7,9.6,3.3,14.2
				c1.7,5.2,4,10.1,6.8,14.8c0.8,1.4,3,0.1,2.2-1.3c-5.1-8.6-8.5-18.2-9.8-28.1c-1.3-10.1-0.1-20.6-2.7-30.5
				c-1.3-4.9-3.5-9.6-7.1-13.3C511.2,541.7,509.5,543.4,510.6,544.6L510.6,544.6z"/>
		</g>
	</g>
	<g>
		<g>
			<path class="st37" d="M311.1,741.9c9.2,9.6,23.4,12.9,31.6,23.5c1,1.3,3.1,0,2.2-1.3c-8.4-10.9-22.6-14.3-32-24.1
				C311.7,739,310,740.7,311.1,741.9L311.1,741.9z"/>
		</g>
	</g>
	<g>
		<g>
			<path class="st17" d="M373.1,700.3c-2.4-6.2,3.4-13.3,9.8-13.4c7-0.1,12.3,6.8,12.6,13.3c0,0.8,1.3,0.8,1.3,0
				c-0.2-5.8-3.8-11.5-9.3-13.7c-5.5-2.2-11.5,0.2-14.5,5.1c-1.6,2.7-2.1,5.9-1,8.9C372.1,701.4,373.4,701.1,373.1,700.3
				L373.1,700.3z"/>
		</g>
	</g>
	<g>
		<g>
			<path class="st16" d="M282.3,523.6c8.5-1.7,17.2-2.7,25.8-2.3c8.6,0.5,17.1,2.5,25.1,5.7c0.4,0.2,0.8-0.3,0.8-0.6
				c1.4-10.7,2.7-21.5,4.1-32.2c0.2-1.5,0.4-3,0.6-4.5c0.1-0.7-1.1-0.9-1.2-0.2c-4.7,24.5-6.3,49.5-4.7,74.4c0.5,7,1.1,14,2.1,20.9
				c0.1,0.8,1.3,0.5,1.2-0.3c-3.3-24.4-3.5-49.3-0.6-73.7c0.8-7,1.9-14,3.3-20.9c-0.4-0.1-0.8-0.1-1.2-0.2
				c-1.4,10.7-2.7,21.5-4.1,32.2c-0.2,1.5-0.4,3-0.6,4.5c0.3-0.2,0.5-0.4,0.8-0.6c-8.2-3.2-16.7-5.2-25.5-5.7
				c-8.8-0.5-17.6,0.6-26.2,2.3C281.2,522.5,281.5,523.7,282.3,523.6L282.3,523.6z"/>
		</g>
	</g>
	<circle class="st16" cx="292.1" cy="395.9" r="5.1"/>
	<circle class="st35" cx="313.9" cy="145.7" r="1.7"/>
	<path class="st38" d="M273.1,129.8c0,0-3.4,14-2.6,20.3c0.8,6,8.9-1.1,8.9-1.1"/>
	<g>
		<path class="st38" d="M249.6,142c0,0,9.9-10.6,19,0"/>
		<line class="st38" x1="252.6" y1="139.6" x2="250.8" y2="135.3"/>
		<line class="st38" x1="256.8" y1="138.1" x2="256.2" y2="133.5"/>
		<line class="st38" x1="261.3" y1="137.6" x2="262" y2="133"/>
	</g>
	<g>
		<path class="st38" d="M286.2,141.1c0,0,9.9-10.6,19,0"/>
		<line class="st38" x1="289.1" y1="138.8" x2="287.3" y2="134.5"/>
		<line class="st38" x1="293.3" y1="137.2" x2="292.7" y2="132.6"/>
		<line class="st38" x1="297.8" y1="136.8" x2="298.5" y2="132.2"/>
	</g>
	<path class="st38" d="M265.4,161.4c0,0,7.7,8.6,22.1,0"/>
	<path class="st39" d="M244.7,131.9c1,0.5,6.8,0.9,13.3,0.2c7.1-0.8,12.7-0.8,12.5-3.1c-0.2-2.3-6.5-5.8-13.6-5.1
		c-6.2,0.7-10.7,6.7-11.9,7.6c0,0,0-0.1,0-0.1"/>
	<path class="st39" d="M308.5,129.8c-1,0.5-6.8,0.9-13.3,0.2c-7.1-0.8-12.7-0.8-12.5-3.1c0.2-2.3,6.5-5.8,13.6-5.1
		c6.2,0.7,10.7,6.7,11.9,7.6c0,0,0-0.1,0-0.1"/>
	<g>
		<g>
			<path class="st39" d="M237.1,160.9c-1.3,5.9-2.6,12.1-1.2,18.2c1,4.7,4.2,10.5,9.3,11.6c2.3,0.5,4.8-0.3,5.8-2.6
				c0.9-1.9,0.2-4.3-1.9-5c-2.6-0.9-4.9,0.9-6.1,3.1c-1.3,2.5-1.3,5.3-0.7,8c0.6,2.9,2.2,5.6,3.6,8.2c1.6,2.8,3,5.6,4.4,8.4
				c2.7,5.8,5.2,11.8,6.2,18.1c0.9,5.5,0.7,12.4-3.4,16.7c-0.7,0.7-1.9,1.8-3,1.6c-1.2-0.2,0-1.5,0.9-1.3c1.1,0.3,1.6,1.8,1.7,2.8
				c0.2,1.4-0.3,2.9-1,4.1c-1.7,2.8-4.8,4.2-7.9,4.8c-2.9,0.5-6.4,0.7-8.7-1.4c-0.9-0.8-1.9-1.5-3.1-0.8c-1,0.5-1.6,1.8-1.3,2.9
				c0.9,2.5,4.7,1.1,4.2-1.4c-0.3-1.6-2.7-0.9-2.4,0.7c-0.3-1.2,0.7,0.4,0.6,0.2c0.1,0.1,0.4,0.4,0.5,0.5c0.4,0.4,0.9,0.7,1.3,0.9
				c1.1,0.6,2.3,0.9,3.5,1.1c2.5,0.3,5.2,0.1,7.7-0.6c4.7-1.3,9-5,9.1-10.1c0.1-2.1-0.8-4.4-2.7-5.5c-1.9-1.1-4.3-0.3-5.2,1.7
				c-0.9,2,0.6,4.1,2.8,4.1c2.2,0.1,4.1-1.6,5.5-3.2c3.3-4.1,4.1-9.6,3.7-14.7c-0.4-6-2.4-11.8-4.7-17.3c-2.2-5.4-5-10.4-7.8-15.6
				c-1.3-2.5-2.5-5.2-2.5-8.1c0-1.4,0.3-2.8,1-3.9c0.6-0.9,2-2.2,3.1-1.3c0.8,0.6,0.2,1.9-0.5,2.4c-1.2,0.9-2.9,0.2-4-0.5
				c-2.4-1.5-4-4.1-4.9-6.7c-2.3-6.3-0.8-13,0.5-19.3C239.8,160,237.4,159.3,237.1,160.9L237.1,160.9z"/>
		</g>
	</g>
	<path class="st35" d="M286.1,174c0,1.7-1.7,4.3-8.2,4.3s-9.2-2.4-9.2-4.1s2.7-0.6,9.2-0.6S286.1,172.3,286.1,174z"/>
	<g>
		<path class="st19" d="M392.2,435.5c-1.8-0.4-17.6-5.5-23.9-1.9c-6.6,3.8-11.2,6-11.2,6s-5.6,2.9-7.5,6.9s-7.1,8.2-8.6,10.5
			c-1.5,2.3-2.6,2.7-3.9,6s-3.4,7.1-3.4,7.1s-1.8,5.3-3.7,6.4c-4.8,2.8-6.5-1.9-6.5-1.9s0.5-2.9,1.3-5.6c1.3-4.3,2.8-8.8,2.8-8.8
			c0.1,0.3,1.3-3.7,4-10.4c1.9-4.9-0.2-2.9-0.2-2.9l-3.5,8.3l-3.5,8.4l-3.3,10.3c0,0-0.9,4.7-1.4,8.6c-0.5,4.5-0.3,5.5-2.6,6.1
			c-2,0.6-4,1-4.9-0.4c-1-1.6-1.3-0.3-2.2,1.9c-0.6,1.6-2.7,1.6-5.4,1.1c-2.8-0.5-2.9-3.9-2.9-3.9s0.6-6-0.9-5
			c-1.5,1-2.7,1.8-4.2,0.3c-2.1-2.2-1.8-7.4-1.8-7.4s-1.1-12.1-1-18.4s1.8-12.5,1.8-12.5s4.7-11.1,8.8-20s14.3-16.6,14.3-16.6
			l27.5-13.3c0,0,28.8-2.6,28.5-3.3C372.8,386,392,434.9,392.2,435.5z"/>
		<g>
			<g>
				<path class="st13" d="M316.8,444.6c-2.7,6.8-4.2,14.1-5.2,21.4c-1,7.4-1.4,14.9-1,22.3c0,0.8,1.3,0.8,1.3,0
					c-0.4-7.3,0-14.7,0.9-21.9c1-7.3,2.5-14.6,5.2-21.5C318.3,444.2,317.1,443.9,316.8,444.6L316.8,444.6z"/>
			</g>
		</g>
		<g>
			<g>
				<path class="st13" d="M306.2,441.3c-3.7,13.3-5.9,27.2-5.9,41.1c0,0.8,1.3,0.8,1.3,0c0-13.8,2.2-27.5,5.9-40.7
					C307.6,440.8,306.5,440.5,306.2,441.3L306.2,441.3z"/>
			</g>
		</g>
	</g>
	<g>
		<path class="st17" d="M385,451.5l-25.2-65.4c-1.1-2.9,0.3-6.2,3.3-7.4l21.4-8.3c2.9-1.1,6.2,0.3,7.4,3.3l25.2,65.4
			c1.1,2.9-0.3,6.2-3.3,7.4l-21.4,8.3C389.5,455.9,386.2,454.4,385,451.5z"/>
		<g>
			<g>
				<path class="st36" d="M363.7,382.5c8,4.7,16.4,8.8,25.1,12.1c1.1,0.4,2.2,0.8,3.3,1.2c0.5,0.2,1,0.3,1.5,0.5
					c1,0.4,1.2,0.8,0.9,1.8c-0.6,2.4-1.5,4.8-2.3,7.2c-1.5,4.5-2.9,9.1-4.4,13.6c-1.6,4.8-3.4,9.5-6.5,13.5c0.4,0,0.7,0,1.1,0
					c-3-5.7,0.6-12.5,2-18.2c0.8-3.1,1.3-6.3,1.7-9.4c0.3-2.5,0.4-5-1.8-6.7c-1.1-0.8-2.4-1.4-3.6-2.1c-1.5-0.8-3-1.6-4.6-2.5
					c-1.4-0.8-2.8-1.5-4.1-2.2c-1.1-0.6-2.8-2-4.2-1.9c-1.8,0.1-1.7,2.3-1.2,3.6c0.4,1,1.3,1.8,2,2.6c1,1.1,2.1,2.1,3.3,3
					c1.2,0.9,2.4,1.8,3.7,2.5c1.3,0.7,3.4,1.3,3.8,3c0.4,1.7-0.8,4-1.3,5.6c-0.6,1.9-1.2,3.7-1.8,5.6c-0.2,0.8,1,1.1,1.2,0.3
					c0.9-2.9,1.9-5.9,2.8-8.8c0.6-2.2,0.5-4.2-1.6-5.5c-2.3-1.4-4.6-2.5-6.6-4.2c-0.9-0.8-1.8-1.6-2.7-2.5c-0.8-0.8-1.8-1.8-1.9-3
					c0-0.2-0.1-0.6,0.1-0.8c0.3-0.2,1.3,0.3,1.5,0.4c0.7,0.3,1.5,0.8,2.2,1.2c1.4,0.8,2.8,1.5,4.1,2.2s2.8,1.5,4.1,2.2
					c1.2,0.7,2.6,1.3,3.7,2.1c2.6,1.9,1.5,5.7,1.1,8.4c-0.5,2.9-1.1,5.9-1.9,8.7c-1.5,5.4-4.1,11.5-1.2,16.9c0.2,0.5,0.8,0.4,1.1,0
					c2.8-3.6,4.6-7.9,6.1-12.2c1.7-4.8,3.2-9.7,4.7-14.5c0.8-2.5,1.7-5.1,2.5-7.7c0.5-1.8,0-2.9-1.7-3.5c-4.9-1.8-9.7-3.6-14.4-5.8
					c-5.2-2.4-10.2-5-15.1-7.9C363.6,381,363,382,363.7,382.5L363.7,382.5z"/>
			</g>
		</g>
		<g>
			<g>
				<path class="st36" d="M393.2,388.4c-1.5,1.4-4.1-0.7-5.4-1.4c-1.8-1.1-3.6-2.1-5.4-3.2c-3.7-2.2-7.5-4.4-11.2-6.6
					c-0.7-0.4-1.3,0.7-0.6,1.1c4.4,2.6,8.8,5.2,13.1,7.8c2,1.2,3.9,2.5,6,3.5c1.5,0.7,3.1,1,4.4-0.2
					C394.7,388.7,393.8,387.9,393.2,388.4L393.2,388.4z"/>
			</g>
		</g>
		<g>
			<g>
				<path class="st36" d="M392.6,388.9c1.1-2.8-0.3-5.7-2.7-7.1c-1.3-0.7-2.8-1.1-3.9-2.1c-1-0.8-2-2.2-1.3-3.5
					c-0.2,0.1-0.4,0.2-0.5,0.3c1.3-0.1,2.6-0.2,3.9-0.2c0.8,0,0.8-1.3,0-1.3c-1.2,0.1-2.4,0.1-3.6,0.2c-0.5,0-0.7,0.1-1,0.6
					c-0.1,0.3-0.2,0.6-0.2,1c-0.1,1.7,1.1,3.2,2.4,4.1c1.5,1,3.4,1.4,4.7,2.7c1.4,1.3,1.8,3.2,1.1,4.9
					C391.1,389.3,392.4,389.6,392.6,388.9L392.6,388.9z"/>
			</g>
		</g>
		<g>
			<g>
				<path class="st36" d="M400.2,400.9c-2.3,7.6-4.6,15.3-6.9,22.9c-0.4,1.4-1.2,3-0.7,4.5c0.4,1,1.4,1.6,2.3,2
					c3.4,1.4,7.1,2.3,10.6,3.4c1.5,0.5,3.1,1.1,4.7,1.5c1,0.2,2.3,0.2,3.1-0.4c2.1-1.6-0.9-4.1-2.2-5.1c-2.4-1.8-5.2-2.8-8.2-2.9
					c-1.3,0-3.6,0.2-4.1-1.4c-0.2-0.7,0-1.7,0.1-2.4c0.1-1.2,0.3-2.3,0.6-3.5c0.2-1.1,0.5-2.1,0.8-3.1c0.2-0.8,0.4-2,0.9-2.6
					c0.1-0.1,0.1-0.3,0.2-0.4c0.7-0.2,1,0,1.2,0.6c0.2,0.6,0.2,1.4,0.1,2c-0.1,1.1-0.4,2.1-0.5,3.2c-0.2,2.4,1.6,6,4.5,4.9
					c0.7-0.3,0.4-1.5-0.3-1.2c-1.6,0.7-2.8-1.3-2.9-2.7c-0.1-1.8,0.6-3.5,0.5-5.2c0-1-0.4-2.1-1.3-2.8c-0.9-0.6-1.9-0.5-2.3,0.5
					c-1.4,3.2-2.3,6.5-2.7,9.9c-0.3,2.4-0.4,4.9,2.4,5.5c1,0.2,2.1,0.2,3.2,0.2c1.7,0.1,3.4,0.5,4.9,1.3c1.2,0.6,2.4,1.4,3.3,2.4
					c0.5,0.5,1.8,1.7,0.7,2.3c-0.5,0.3-1.4,0.1-2,0c-3.4-0.8-6.7-2.1-10-3.2c-1.5-0.5-3.1-0.9-4.6-1.5c-0.6-0.2-1.5-0.6-1.9-1.2
					c-0.5-0.9,0.1-2.1,0.3-3c2.4-8,4.8-15.9,7.2-23.9C401.6,400.4,400.4,400.1,400.2,400.9L400.2,400.9z"/>
			</g>
		</g>
		<g>
			<g>
				<path class="st36" d="M385.6,439.3c1.3-1.4,2.1-3,3.1-4.5s2.4-3.1,4.5-2.7c1.2,0.2,2.2,1,3.1,1.7c1.2,0.9,2.3,1.8,3.4,2.9
					c1.6,1.6,4.1,3.9,3.7,6.4c-0.2,1-1,2.3-2.2,2.3c-0.8,0-1.4-0.6-1.8-1.2c-0.9-1.4-1.2-3.1-2.2-4.5c-1.1-1.5-2.9-2.1-4.7-1.6
					c-2,0.6-3.4,2.3-4.2,4.2c-0.5,1.1-2.4,5.4,0.2,5.5c0.9,0,1.6-0.8,2.2-1.2c0.5-0.4,1-0.9,1.6-0.6c0.5,0.2,0.9,0.9,0.7,1.5
					c-0.4,0.7,0.7,1.4,1.1,0.6c0.8-1.6-0.6-3.7-2.4-3.4c-1,0.1-1.7,1-2.5,1.5c-0.1,0.1-0.4,0.3-0.5,0.3c-0.3,0-0.3-0.5-0.2-0.7
					c0.1-0.7,0.4-1.4,0.6-2c0.8-2.3,2.9-5.5,5.8-4.5c1.8,0.7,2.3,3,3,4.5c0.7,1.5,1.8,2.9,3.5,2.8c2.1-0.1,3.5-2.3,3.3-4.2
					c-0.2-2.6-2.2-4.7-4-6.4c-1.8-1.8-4-3.9-6.4-4.8c-5.1-2-6.9,4.5-9.5,7.3C384.2,439,385.1,439.9,385.6,439.3L385.6,439.3z"/>
			</g>
		</g>
	</g>
</g>
</svg>
